<svg width="750" height="599" viewBox="0 0 750 599" fill="none" xmlns="http://www.w3.org/2000/svg">
<g opacity="0.2" clip-path="url(#clip0_1_9)">
<path d="M0.934288 336.684C1.8691 338.203 2.71627 339.722 3.41738 341.359C8.06209 351.848 11.8596 362.688 15.4235 373.616C22.2883 394.595 28.1892 415.866 35.6675 436.64C40.4583 449.934 44.3143 463.55 48.7837 476.932C53.3992 490.723 59.6506 503.842 65.7268 517.02C70.8389 528.123 77.7622 538.145 85.8831 547.261C89.6515 551.468 93.0985 555.968 96.9836 560.058C96.3118 560.876 95.4063 561.052 94.5883 561.402C86.4673 564.85 78.2587 568.123 70.2254 571.746C54.8015 578.67 38.9977 584.485 22.8141 589.306C17.4683 590.884 12.2394 592.841 6.95203 594.624L15.3943 600C20.6233 598.305 25.8522 596.611 31.052 594.916C41.5975 591.527 52.1431 588.108 62.3089 583.638C69.0569 580.687 75.8049 577.794 82.5822 574.931C88.3077 572.496 94.2183 571.95 100.314 573.294C104.9 574.317 109.516 575.164 113.898 577.063C120.295 579.839 127.014 581.68 133.908 582.849C136.625 583.316 139.254 584.017 141.912 584.777C152.195 587.67 162.506 590.446 173.169 591.643C174.834 591.819 176.47 592.082 178.106 592.462C188.009 594.741 198.058 595.471 208.165 595.88C211.7 596.026 215.205 596.085 218.74 595.646C225.254 594.828 231.797 594.098 238.283 593.075C244.768 592.053 251.311 591.351 257.826 590.504C261.798 589.978 265.888 589.744 269.686 588.459C282.188 584.164 294.808 580.131 306.843 574.522C309.969 573.061 313.241 572.009 316.454 570.782C323.056 568.269 329.833 566.048 335.676 562.016C341.81 557.779 347.974 553.601 354.109 549.364C358.666 546.238 363.369 543.492 368.393 541.242C369.941 540.57 371.285 539.635 372.629 538.641C377.858 534.784 382.357 530.139 386.943 525.61C387.556 524.996 388.404 524.383 387.644 523.389C386.855 522.308 387.732 522.074 388.433 521.724C398.54 516.903 407.946 510.796 417.499 505.04C422.027 502.323 426.292 499.196 430.469 495.895C443.381 485.639 455.358 474.332 468.007 463.813C476.916 456.392 486.118 449.438 496.605 444.354C498.416 443.477 499.877 439.883 499.205 438.072C498.679 436.64 496.956 435.968 495.554 436.757C494.794 437.195 494.181 437.838 493.509 438.451C491.96 439.825 490.412 441.139 488.572 442.104C479.428 447.012 470.285 451.95 461.521 457.589C450.07 464.952 438.035 471.41 426.671 478.948C420.624 482.951 414.665 487.129 408.209 490.489C397.693 495.982 387.001 501.125 375.872 505.303C368.977 507.874 362.171 510.679 355.394 513.484C335.793 521.578 315.899 528.795 295.129 533.353C291.478 534.142 287.856 534.96 284.233 535.866C275.061 538.203 265.742 539.43 256.336 539.898C236.676 540.833 217.133 539.255 197.59 537.502C187.804 536.625 178.047 536.07 168.232 536.567C167.122 536.625 165.953 536.801 164.843 536.479C164.931 535.69 165.486 535.603 165.895 535.398C175.418 530.782 184.737 525.727 193.763 520.204C196.042 518.802 198.466 518.422 201.066 518.451C204.426 518.481 207.668 519.299 210.969 519.649C222.479 520.906 234.047 521.139 245.586 521.811C262.09 522.776 278.537 522.104 294.866 519.708C307.486 517.867 319.872 514.858 332.199 511.468C348.062 507.115 363.164 500.833 377.946 493.762C395.736 485.288 413.321 476.377 431.082 467.845C441.482 462.878 451.326 457.093 460.411 449.993C471.6 441.227 482.642 432.257 494.093 423.842C505.369 415.573 515.505 406.077 525.671 396.581C536.889 386.063 547.872 375.281 558.973 364.616C560.171 363.448 561.222 362.133 562.157 360.789C562.829 359.795 562.829 358.744 562.04 357.809C561.252 356.874 560.258 356.669 559.119 357.049C558.184 357.37 557.425 358.013 556.636 358.597C554.708 360.088 552.722 361.549 550.764 363.009C539.956 371.161 529.206 379.343 519.245 388.546C506.128 400.672 492.545 412.213 477.763 422.294C468.445 428.634 459.126 435.004 449.866 441.402C443.176 446.048 436.195 450.226 429.154 454.317C415.337 462.294 400.497 467.991 385.599 473.513C376.047 477.049 366.436 480.467 356.592 483.185C331.206 490.197 305.149 492.768 279.033 494.989C262.821 496.362 246.55 497.18 230.454 499.868C230.103 499.927 229.694 500.102 229.402 499.43C231.476 498.203 233.55 496.947 235.624 495.749C236.033 495.515 236.559 495.281 236.997 495.34C238.604 495.427 239.831 494.668 240.999 493.733C244.651 490.928 248.77 489.204 253.21 488.123C265.83 485.084 278.683 483.477 291.536 482.045C305.529 480.497 319.229 477.692 332.725 473.747C346.659 469.686 360.36 464.894 373.797 459.372C384.694 454.901 395.268 449.817 405.58 444.091C412.182 440.438 418.463 436.202 424.977 432.403C439.729 423.813 455.182 416.538 470.168 408.386C478.961 403.623 488.017 399.386 496.634 394.244C505.719 388.809 514.571 382.995 523.509 377.326C526.986 375.135 530.199 372.535 533.383 369.934C541.563 363.185 550.063 356.815 559.236 351.556C575.04 342.498 588.623 330.723 602.002 318.597C603.083 317.604 604.222 316.494 604.398 314.974C604.544 313.426 605.566 312.841 606.676 312.169C611.73 309.16 616.696 305.975 621.458 302.527C631.828 295.018 641.001 286.194 649.647 276.786C654.555 271.439 659.463 266.004 662.88 259.576C664.604 256.362 666.912 253.85 669.599 251.57C670.709 250.606 671.849 249.671 672.959 248.707C679.181 243.126 686.016 238.393 692.677 233.367C703.018 225.537 711.869 216.041 721.86 207.801C731.324 199.971 740.76 192.228 751.13 185.625C751.393 185.478 751.656 185.332 751.86 185.128C752.97 184.164 753.263 182.878 752.678 181.709C752.065 180.54 750.809 180.015 749.377 180.541C748.472 180.862 747.654 181.446 746.807 181.943C746.106 182.381 745.434 182.732 744.645 182.235C742.571 180.95 741.14 181.972 739.825 183.521C735.794 188.225 731.266 192.374 726.534 196.377C720.165 201.782 713.388 206.603 706.903 211.833C703.836 214.288 700.885 216.917 697.643 219.109C687.944 225.625 678.246 232.082 668.401 238.335C657.301 245.376 646.054 252.155 634.895 259.109C629.725 262.323 624.934 266.063 619.53 268.926C613.541 272.082 607.67 275.413 601.71 278.656C592.655 283.565 583.628 288.532 574.339 292.915C559.353 299.985 544.192 306.676 528.738 312.695C516.937 317.283 504.931 321.256 492.954 325.288C482.554 328.795 471.921 331.717 461.638 335.486C449.019 340.102 436.574 345.157 424.218 350.475C423.633 350.738 423.078 351.293 422.348 350.825C422.348 350.709 422.348 350.592 422.406 350.533C426.555 346.53 430.732 342.527 434.909 338.554C435.347 338.115 435.932 337.736 436.487 337.94C438.619 338.7 440.109 337.531 441.57 336.362C445.396 333.265 449.807 331.424 454.569 330.431C463.8 328.503 472.885 326.165 482.028 323.828C490.383 321.665 498.854 320 507.063 317.253C514.95 314.595 522.925 312.111 530.783 309.306C537.327 306.969 543.9 304.66 550.268 301.797C563.676 295.749 576.997 289.496 590.113 282.834C605.157 275.15 619.793 266.822 632.996 256.158C642.607 248.415 652.306 240.76 662.179 233.309C677.954 221.417 692.589 208.298 706.29 194.069C716.017 183.959 726.183 174.317 737.225 165.639C740.322 163.214 742.951 160.292 745.317 157.137C745.784 156.523 746.193 155.822 746.456 155.091C746.865 153.981 746.69 152.929 745.784 152.111C744.82 151.205 743.652 151.147 742.513 151.76C741.841 152.14 741.227 152.637 740.585 153.104C727.76 162.98 715.579 173.645 703.777 184.69C687.302 200.088 669.336 213.44 650.465 225.683C639.628 232.754 628.293 239.036 617.134 245.581C601.739 254.638 585.848 262.761 569.84 270.65C566.334 272.374 562.771 274.039 559.119 275.471C550.268 278.948 541.387 282.337 532.478 285.668C510.335 293.966 488.806 303.755 467.568 314.098C467.043 314.361 466.546 314.828 465.377 314.595C467.072 313.572 468.386 312.783 469.701 311.994C472.564 310.299 475.426 308.605 478.172 306.706C490.88 297.823 502.652 287.743 515.009 278.422C516.411 277.37 517.726 276.172 519.04 274.974C525.029 269.598 531.017 264.251 536.947 258.817C543.169 253.119 549.713 247.772 555.117 241.256C560.375 234.916 566.072 228.955 571.709 222.936C577.464 216.771 583.365 210.723 588.506 204.032C594.174 196.64 600.133 189.481 605.975 182.235C620.873 163.769 636.297 145.712 652.13 128.064C665.13 113.572 676.639 97.9693 687.302 81.6946C687.828 80.8765 688.412 80.0292 688.645 79.1234C689.142 77.1658 690.194 75.5295 691.216 73.8641C692.18 72.2863 693.086 70.6501 694.079 69.0723C695.452 66.8517 696.036 64.3973 696.62 61.9138C696.883 60.7158 696.62 59.7516 695.54 59.138C694.488 58.5244 693.436 58.7582 692.56 59.5471C691.976 60.073 691.421 60.6282 690.953 61.2418C682.54 72.111 673.28 82.2497 664.283 92.5931C655.461 102.761 645.324 111.614 635.363 120.614C632.295 123.389 629.491 126.37 626.979 129.642C619.997 138.729 612.694 147.641 604.924 156.055C592.099 169.963 579.772 184.339 566.773 198.072C561.865 203.272 557.425 208.882 552.254 213.849C540.014 225.595 527.891 237.458 516.323 249.847C506.362 260.541 495.962 270.796 485.621 281.11C481.649 285.055 477.442 288.736 473.557 292.739C467.393 299.08 460.645 304.777 454.102 310.679C452.641 311.994 451.005 313.134 449.106 314.624C449.428 312.958 450.129 312.111 450.713 311.234C461.58 294.521 470.665 276.786 479.487 258.933C485.066 247.655 488.747 235.617 492.282 223.579C496.81 208.21 499.585 192.462 501.922 176.654C503.791 163.828 504.755 150.913 506.099 138.057C507.852 121.286 509.897 104.514 510.043 87.626C510.101 79.6786 509.721 71.7312 509.955 63.813C510.393 49.6712 509.429 35.588 508.874 21.4755C508.641 15.8948 508.144 10.314 507.122 4.79173C506.975 3.9152 506.829 3.03867 506.596 2.19132C506.245 0.964151 505.515 0.0876249 504.113 0.1168C502.886 0.175271 502.155 0.876504 501.776 2.01603C501.454 3.03867 500.987 4.06132 500.841 5.11314C499.994 10.7523 498.971 16.3622 498.504 22.0014C496.371 47.5382 492.749 72.8415 488.776 98.1446C487.345 107.348 485.621 116.523 486.264 125.931C486.381 127.684 486.235 129.467 486.001 131.22C484.132 145.303 482.35 159.416 479.487 173.353C476.536 187.757 472.534 201.928 469.146 216.245C467.101 224.952 464.968 233.601 461.96 242.016C456.731 256.596 452.32 271.468 446.623 285.873C440.752 300.745 434.909 315.617 427.168 329.642C423.254 336.713 418.813 343.375 412.591 348.663C409.086 351.644 405.58 354.653 402.075 357.604C401.841 357.779 401.578 358.305 401.082 357.692C401.198 357.37 401.315 357.02 401.491 356.698C404.441 351.497 407.187 346.18 409.845 340.803C413.964 332.447 417.908 323.974 420.449 314.974C423.108 305.624 426.058 296.391 428.833 287.1C433.361 271.877 437.655 256.596 440.664 240.964C443.118 228.225 445.542 215.515 446.477 202.6C448.142 179.489 448.58 156.348 448.23 133.207C448.084 123.389 447.879 113.601 448.58 103.784C449.165 95.5734 449.691 87.3338 450.041 79.1234C450.421 70.0949 450.362 61.0664 449.632 52.0672C449.252 47.5675 448.96 43.0679 449.194 38.5683C449.72 28.2542 449.252 17.9693 448.318 7.7136C448.23 6.83701 448.172 5.96048 448.025 5.08396C447.821 3.71067 447.178 2.65885 445.688 2.39585C444.199 2.13291 442.884 2.57114 442.183 3.94443C441.19 5.90207 439.642 7.68442 439.875 10.1679C439.963 11.1029 439.554 12.0963 439.32 13.0313C435.961 28.1957 433.595 43.5061 432.426 58.9627C431.462 71.7603 429.885 84.5288 429.301 97.3557C429.096 101.972 428.687 106.559 428.19 111.147C426.467 127.246 425.211 143.375 424.276 159.532C423.575 172.155 422.932 184.806 421.472 197.37C420.157 208.59 418.141 219.664 416.681 230.855C414.081 250.811 410.663 270.592 405.493 290.051C401.374 305.595 396.787 320.993 391.909 336.333C388.345 347.553 383.759 358.393 380.312 369.671C378.355 376.07 374.966 381.885 368.452 385.274C368.715 383.521 369.708 382.177 370.321 380.657C375.667 367.363 381.101 354.156 385.541 340.511C391.091 323.477 395.239 306.15 397.196 288.356C400.381 259.313 400.088 230.212 397.897 201.11C396.612 183.901 394.217 166.779 392.201 149.657C391.792 146.15 391.296 142.644 390.565 139.196C388.404 128.707 386.125 118.276 383.876 107.816C382.795 102.82 381.363 97.94 379.757 93.0898C378.267 88.6194 376.748 84.1782 376.31 79.4156C376.193 78.1592 375.872 76.9028 375.258 75.7633C374.615 74.5361 373.71 73.7472 372.191 74.0394C370.906 74.3024 370.263 75.2666 370.38 76.9613C370.467 78.5098 370.643 80.0876 371.052 81.607C371.753 84.1782 372.132 86.7787 372.162 89.4667C372.249 96.333 372.425 103.199 372.395 110.066C372.337 132.418 372.191 154.799 372.103 177.151C371.986 202.659 371.928 228.137 371.811 253.645C371.753 271.877 371.607 290.139 369.795 308.313C369.357 312.9 369.036 317.516 369.007 322.104C368.919 342.001 365.238 361.286 359.571 380.248C358.111 385.128 356.329 389.92 353.846 394.419C352.239 397.341 350.808 400.467 348.12 402.542C343.446 406.136 339.181 410.197 334.653 413.908C333.952 414.492 333.368 415.398 332.024 415.427C332.229 414.814 332.346 414.375 332.521 413.966C334.653 408.59 336.961 403.272 338.947 397.867C344.556 382.703 347.799 366.983 350.106 351.03C352.151 337.034 352.823 322.922 354.167 308.868C356.446 285.288 356.796 261.651 354.313 238.072C351.596 212.126 348.821 186.18 346.192 160.234C344.264 141.154 340.759 122.396 335.325 103.988C333.981 99.4594 332.433 95.0182 330.651 90.6646C329.57 88.0642 327.526 87.8013 325.598 89.7881C324.341 91.103 324.049 92.6223 324.283 94.4046C325.101 100.833 326.065 107.231 326.591 113.689C327.701 128.064 328.46 142.469 329.512 156.844C330.388 168.97 330.593 181.154 332.229 193.221C332.667 196.435 332.638 199.679 332.521 202.922C332.346 208.503 332.229 214.083 331.995 219.693C330.476 254.58 328.869 289.437 328.081 324.354C327.964 328.97 327.935 333.587 328.051 338.174C328.519 356.727 326.415 374.989 322.034 392.988C320.836 397.838 319.638 402.688 319.025 407.655C317.915 416.45 314.497 424.222 309.356 431.351C307.749 433.572 305.909 435.588 304.623 438.042C303.951 439.357 302.637 440.497 300.475 440.964C303.63 434.711 305.47 428.546 306.522 422.148C307.983 413.148 309.356 404.12 310.436 395.062C311.955 382.381 312.335 369.671 311.284 356.903C309.794 338.524 308.421 320.146 307.428 301.709C307.106 295.632 306.522 289.584 305.85 283.535C305.061 276.523 304.39 269.481 304.039 262.44C303.484 251.337 302.315 240.351 299.599 229.54C299.102 227.553 298.781 225.508 298.46 223.462C296.21 210.11 293.815 196.786 291.77 183.404C288.907 164.909 283.912 146.998 277.631 129.408C277.164 128.123 276.667 126.837 276.054 125.61C274.885 123.302 272.811 122.542 270.679 123.506C268.868 124.324 268.517 125.551 269.277 128.239C271.76 137.151 273.279 146.238 274.009 155.442C274.798 165.23 275.324 175.018 276.171 184.777C276.989 194.244 278.011 203.681 279.822 213.061C281.663 222.586 283.561 232.14 283.912 241.899C284.701 263.287 287.622 284.5 289.521 305.771C290.134 312.725 290.601 319.649 290.309 326.633C290.192 329.876 290.309 333.119 290.193 336.333C289.754 347.115 291.419 357.838 290.894 368.649C290.222 381.885 290.368 395.12 289.9 408.356C289.462 420.92 287.563 433.338 285.869 445.785C285.431 448.999 284.642 452.184 282.451 454.755C279.705 457.998 275.908 459.898 272.461 462.732C272.285 461.183 272.811 460.336 273.074 459.43C274.798 453.499 277.252 447.801 278.303 441.695C280.961 426.676 281.984 411.512 281.838 396.289C281.604 373.44 280.699 350.592 278.478 327.83C277.953 322.454 277.69 317.078 277.807 311.673C277.953 304.777 277.31 297.969 276.346 291.161C273.717 273.017 270.357 254.96 266.852 236.961C264.661 225.8 262.762 214.551 259.082 203.74C256.336 195.705 254.495 187.524 253.21 179.167C252.743 176.07 252.217 172.944 251.399 169.934C247.952 157.458 244.037 145.128 240.094 132.768C239.831 131.95 239.48 131.103 239.013 130.372C238.341 129.35 237.289 129.116 236.15 129.496C235.128 129.817 234.543 130.635 234.485 131.687C234.456 132.359 234.573 133.061 234.806 133.703C235.654 136.333 236.033 139.05 236.559 141.738C237.523 146.472 237.669 151.293 238.429 156.026C240.181 167.071 242.635 177.998 243.687 189.16C244.096 193.338 244.914 197.487 245.556 201.665C247.134 211.95 248.945 222.177 249.792 232.549C250.961 247.217 252.304 261.855 253.239 276.552C253.94 287.714 255.226 298.817 256.044 309.978C257.826 334.346 259.607 358.685 260.075 383.112C260.455 402.425 261.419 421.738 260.98 441.052C260.776 449.876 260.192 458.671 258.79 467.407C258.556 468.868 258.147 470.27 257.621 471.643C256.891 473.66 255.284 474.507 253.093 475.033C253.473 473.426 253.765 472.082 254.057 470.767C255.138 465.887 256.248 461.008 256.16 455.953C256.014 447.392 255.313 438.919 254.495 430.416C254.145 426.91 253.765 423.375 252.918 419.956C251.983 416.129 251.253 412.272 250.785 408.386C249.851 400.789 248.536 393.251 247.426 385.683C244.68 367.246 241.262 348.955 236.939 330.782C231.476 307.787 226.656 284.646 220.814 261.738C216.081 243.214 212.225 224.456 206.646 206.165C202.206 191.614 198.32 176.917 192.449 162.863C191.923 161.607 191.602 160.263 191.222 158.919C188.651 149.978 185.584 141.154 182.429 132.389C182.166 131.658 181.874 130.898 181.436 130.285C180.413 128.882 178.602 128.327 177.259 128.882C175.915 129.437 175.418 130.548 175.652 132.593C175.74 133.265 175.886 133.937 176.032 134.609C176.85 138.641 177.668 142.673 178.515 146.706C179.946 153.63 180.618 160.672 182.283 167.567C185.321 180.161 187.132 192.988 188.651 205.844C191.485 230.036 195.75 253.966 201.388 277.662C202.498 282.337 204.104 286.895 205.01 291.6C208.545 309.511 213.482 327.1 217.834 344.806C222.479 363.711 225.575 382.849 227.971 402.133C228.701 408.064 229.461 413.996 229.577 420.015C229.753 428.166 230.249 436.289 231.71 444.324C232.031 446.048 232.206 447.83 232.236 449.584C232.528 461.242 233.346 472.9 234.047 484.529C234.193 486.866 233.609 488.327 231.476 489.525C224.524 493.353 217.659 497.356 210.765 501.3C210.443 501.475 210.064 501.592 209.713 501.709C208.895 500.833 209.217 499.781 209.129 498.846C208.808 494.843 208.515 490.84 207.902 486.837C205.39 470.27 202.878 453.674 200.424 437.078C199.869 433.28 199.197 429.54 198.379 425.8C196.655 418.145 194.815 410.519 193.559 402.746C190.813 386.004 187.892 369.262 182.721 353.046C182.341 351.848 182.049 350.562 181.816 349.335C178.369 331.979 173.14 315.12 168.378 298.115C165.252 286.954 161.221 276.085 158.796 264.748C155.817 250.84 152.048 237.107 148.894 223.258C145.651 208.999 141.24 195.062 136.245 181.3C135.427 179.05 134.258 178.495 131.921 179.284C129.555 180.073 128.796 181.242 129.497 183.433C130.227 185.771 130.928 188.108 131.454 190.504C135.865 210.84 138.728 231.439 141.707 252.038C142.262 255.836 142.847 259.605 143.577 263.375C146.235 277.253 149.098 291.074 151.201 305.04C151.523 307.261 151.99 309.481 152.662 311.643C153.947 315.676 154.824 319.795 155.408 323.974C156.635 332.914 158.534 341.738 160.199 350.621C163.909 370.08 167.56 389.569 171.329 408.999C173.665 420.95 175.71 432.929 177.667 444.938C179.187 454.229 180.589 463.55 182.721 472.725C185.613 485.23 187.746 497.911 190.93 510.387C191.047 510.855 191.134 511.351 191.251 511.819C191.397 512.462 191.134 512.958 190.579 513.309C188.739 514.39 187.015 515.646 185.117 516.435C184.269 515.822 184.182 514.974 183.919 514.273C181.728 508.166 179.537 502.089 177.405 495.982C176.937 494.697 176.616 493.353 176.265 492.009C172.263 476.026 168.261 460.044 164.259 444.061C161.455 432.841 157.453 421.943 154.59 410.723C152.633 403.126 150.471 395.588 148.28 388.05C145.008 376.83 142 365.522 140.364 353.952C137.676 334.989 133.382 316.348 128.854 297.765C124.969 281.811 122.427 265.624 120.529 249.379C118.484 232.023 115.475 214.843 111.823 197.779C111.707 197.312 111.59 196.815 111.385 196.406C110.918 195.442 110.1 194.916 109.019 194.945C107.821 195.004 106.974 195.617 106.624 196.786C106.448 197.429 106.419 198.13 106.39 198.831C106.156 202.834 106.069 206.866 105.631 210.869C104.813 218.817 104.9 226.764 105.631 234.682C106.624 245.405 108.172 256.099 109.399 266.822C110.421 275.792 112.028 284.675 112.992 293.645C114.92 311.118 117.841 328.415 121.61 345.595C124.472 358.627 127.189 371.658 129.555 384.806C133.294 405.581 138.757 425.946 144.892 446.136C145.797 449.145 146.703 452.155 147.229 455.252C149.39 468.371 153.013 481.081 156.956 493.733C158.621 499.08 160.608 504.31 163.061 509.335C165.311 513.923 167.385 518.568 169.605 523.156C170.102 524.237 170.16 524.938 168.933 525.493C166.275 526.749 163.646 528.093 161.046 529.437C160.082 529.934 159.468 529.788 158.826 528.853C157.453 526.808 156.138 524.733 155.262 522.425C150.822 510.65 146.907 498.7 144.074 486.486C140.597 471.497 137.238 456.45 133.703 441.461C130.578 428.283 127.569 415.106 124.034 402.016C122.223 395.383 120.207 388.839 118.425 382.206C114.569 367.801 110.071 353.601 105.309 339.459C100.548 325.23 95.6692 311.03 91.9884 296.479C86.1753 273.543 80.5081 250.606 77.2948 227.144C76.9734 224.865 76.1555 223.813 74.7241 223.725C73.205 223.608 72.1242 224.719 71.8029 227.115C71.0141 232.958 70.1963 238.802 70.6344 244.704C71.1894 252.535 71.6568 260.365 71.4815 268.225C71.3647 273.63 71.9489 279.007 72.7669 284.353C73.8185 291.249 75.1038 298.086 76.6229 304.894C80.3328 321.344 84.7438 337.648 88.8628 354.01C92.3682 367.801 96.6916 381.359 100.723 395.004C106.741 415.34 112.758 435.646 119.389 455.749C121.201 461.242 123.304 466.647 124.648 472.286C127.423 484.266 132.301 495.573 135.631 507.378C135.836 508.137 136.186 508.839 136.478 509.569C139.955 517.692 143.665 525.698 148.835 532.914C150.208 534.814 150.15 534.901 147.9 536.07C144.249 537.969 140.597 539.868 136.917 541.738C134.93 542.761 134.93 542.732 133.586 541.008C130.87 537.502 128.912 533.528 126.985 529.554C120.762 516.757 114.745 503.842 109.691 490.577C104.111 475.939 98.824 461.125 94.5007 446.019C85.1528 413.294 75.9218 380.511 66.72 347.757C60.5855 325.931 53.8958 304.31 47.1479 282.659C46.885 281.811 46.5929 280.964 46.0962 280.234C45.2783 279.036 43.6424 278.627 42.4156 279.153C41.101 279.737 40.4875 280.789 40.6628 282.221C40.7504 283.097 40.9842 283.944 41.1595 284.821C43.029 293.265 44.4896 301.768 45.7457 310.299C48.404 328.064 51.851 345.654 55.9115 363.156C59.5046 378.641 63.1561 394.098 66.0773 409.73C68.5604 423.053 71.7152 436.231 75.4252 449.233C78.6093 460.453 82.0271 471.614 85.7955 482.688C89.8267 494.492 94.4422 506.063 101.424 516.494C104.316 520.818 107.179 525.142 110.071 529.467C114.044 535.427 118.279 541.213 123.684 545.975C124.18 546.413 124.881 546.735 124.823 547.874C119.682 550.592 114.336 553.192 108.931 555.676C107.821 556.172 107.296 555.5 106.77 554.77C103.615 550.387 100.401 546.092 98.0353 541.183C94.3254 533.499 90.411 525.931 86.4089 518.393C82.7574 511.556 79.5148 504.514 76.5936 497.326C71.6568 485.142 67.7132 472.578 63.2437 460.219C57.898 445.464 53.1948 430.475 46.9726 416.041C37.5955 394.361 27.9263 372.798 17.6729 351.468C14.664 345.186 11.1294 339.167 7.91604 333.002C5.75436 328.853 4.7319 328.707 1.66464 332.184C-0.000465032 334.054 -0.0880505 334.638 1.28494 336.859L0.934288 336.684ZM467.189 306.004C479.078 294.755 490.85 283.389 502.389 271.76C516.469 257.589 529.907 242.747 544.25 228.839C549.946 223.316 555.935 218.057 561.164 212.096C570.541 201.402 580.502 191.264 589.763 180.482C596.657 172.447 604.164 164.938 611.087 156.932C618.274 148.634 625.489 140.336 632.062 131.541C634.048 128.853 636.502 126.574 638.985 124.324C649.092 115.208 659.317 106.18 668.255 95.8363C671.41 92.2132 674.536 88.561 677.662 84.9087C678.421 84.0321 679.152 83.1555 680.7 82.2206C674.39 91.1322 668.781 99.7516 662.238 107.699C652.218 119.883 641.76 131.717 631.244 143.492C622.48 153.28 614.271 163.535 605.975 173.733C600.22 180.803 594.057 187.553 588.682 194.916C579.684 207.246 568.759 217.852 558.564 229.101C556.928 230.913 555.234 232.695 553.715 234.624C545.798 244.47 535.895 252.242 526.723 260.803C517.667 269.218 508.202 277.078 498.329 284.558C491.23 289.934 484.336 295.603 477.091 300.833C473.586 303.345 470.051 305.741 466.108 307.699C466.02 306.647 466.75 306.413 467.218 306.004L467.189 306.004ZM438.59 318.247C444.929 305.186 450.099 291.6 455.124 277.984C460.353 263.725 464.998 249.262 469.759 234.828C472.885 225.303 474.346 215.369 477.062 205.727C479.195 198.072 480.889 190.329 482.759 182.586C486.731 166.048 488.747 149.218 491.084 132.418C491.405 130.197 491.61 127.889 491.464 125.668C490.821 116.757 492.428 108.05 493.859 99.3718C497.628 76.1431 500.724 52.8269 502.973 29.3937C503.032 28.634 502.886 27.8451 503.762 26.7348C503.85 28.2834 503.937 29.3352 503.996 30.4163C504.463 41.6946 504.843 52.9437 504.522 64.2512C504.317 71.9941 504.668 79.737 504.609 87.4798C504.492 104.28 502.418 120.935 500.666 137.619C499.351 150.095 498.446 162.63 496.634 175.047C494.385 190.679 491.639 206.223 487.228 221.417C483.664 233.66 479.896 245.873 474.229 257.326C465.523 274.799 456.672 292.184 445.951 308.546C443.205 312.725 440.576 316.961 437.772 321.402C437.451 320.029 438.181 319.153 438.619 318.247L438.59 318.247ZM574.339 331.454C574.397 330.431 575.186 330.489 575.799 330.577C575.332 330.84 574.894 331.132 574.339 331.454ZM431.9 352.783C440.08 349.511 448.347 346.384 456.497 342.995C467.656 338.378 479.37 335.34 490.821 331.541C508.232 325.785 525.642 320 542.527 312.841C558.681 306.004 574.835 299.138 590.259 290.665C601.272 284.646 612.343 278.714 623.386 272.754C629.024 269.715 634.019 265.741 639.452 262.41C648.479 256.859 657.476 251.308 666.503 245.756C667.087 245.405 667.613 244.909 668.372 244.967C668.401 245.931 667.554 246.224 667.029 246.691C652.247 259.343 636.473 270.504 619.296 279.766C601.827 289.204 583.774 297.297 565.575 305.099C540.073 316.026 514.687 327.188 489.01 337.765C480.831 341.125 472.388 343.667 463.946 346.238C451.268 350.095 438.531 353.689 425.591 356.523C425.036 356.64 424.51 356.99 423.984 357.253C423.867 356.961 423.75 356.64 423.633 356.348C426.379 355.15 429.125 353.864 431.9 352.754L431.9 352.783ZM392.639 376.012C400.527 369.847 409.845 366.779 419.164 363.769C423.925 362.221 428.804 361.139 433.682 360.029C450.742 356.172 467.393 350.942 483.956 345.42C489.448 343.608 494.765 341.271 500.081 338.992C516.674 331.921 533.208 324.733 549.8 317.662C564.406 311.439 579.012 305.157 593.502 298.671C606.852 292.71 619.763 285.873 632.412 278.539C633.668 277.809 634.954 277.078 636.21 276.377C634.603 278.539 632.441 280.058 630.309 281.519C625.46 284.879 620.26 287.684 614.973 290.256C604.631 295.281 594.787 301.125 585.76 308.283C575.624 316.318 564.406 322.513 552.751 328.006C534.376 336.654 515.739 344.69 496.926 352.316C484.015 357.546 471.045 362.6 457.695 366.662C444.169 370.782 430.644 374.784 416.71 377.268C409.29 378.583 401.783 379.606 394.421 381.3C391.646 381.943 388.871 382.498 386.154 383.345C385.278 383.638 384.402 384.164 383.058 383.667C386.359 381.037 389.455 378.524 392.61 376.041L392.639 376.012ZM377.478 391.001C382.97 389.511 388.433 388.02 393.983 386.676C401.987 384.777 410.167 383.725 418.288 382.323C431.433 380.044 444.228 376.245 457.023 372.418C479.867 365.551 501.834 356.289 523.685 346.852C536.012 341.505 548.281 336.129 560.375 330.197C571.505 324.733 581.875 318.101 591.661 310.504C598.643 305.069 606.238 300.541 614.155 296.625C618.741 294.375 623.24 292.009 627.68 289.525C628.176 289.233 628.644 288.824 629.433 288.941C628.79 290.168 627.709 290.811 626.774 291.6C616.462 300.307 605.07 307.407 593.239 313.747C581.729 319.912 570.716 326.866 559.557 333.587C550.764 338.904 542.03 344.368 533.091 349.481C524.123 354.595 514.395 358.101 504.872 361.928C491.873 367.129 478.932 372.535 465.611 376.976C453.4 381.008 440.985 384.251 428.541 387.378C424.247 388.459 419.807 388.546 415.425 388.985C402.455 390.241 389.426 391.001 376.485 392.637C376.018 392.695 375.521 392.666 374.791 392.695C375.492 391.41 376.602 391.234 377.537 391.001L377.478 391.001ZM377.011 253.44C377.128 227.845 377.215 202.25 377.274 176.654C377.332 154.01 377.391 131.366 377.478 108.722C377.478 107.962 377.215 107.173 377.946 106.063C379.114 110.066 379.757 113.718 380.487 117.37C380.984 119.883 381.276 122.425 381.948 124.879C386.797 143.258 388.17 162.191 390.478 180.979C393.574 206.136 394.48 231.41 393.866 256.742C393.37 277.867 391.266 298.817 386.008 319.357C382.327 333.703 377.653 347.757 372.132 361.49C370.613 365.288 369.065 369.116 367.429 373.207C366.991 371.687 367.575 370.665 367.838 369.613C371.431 355.12 373.797 340.424 374.09 325.464C374.206 319.854 374.353 314.273 374.908 308.722C376.748 290.343 376.894 271.906 376.982 253.499L377.011 253.44ZM332.229 425.771C334.799 423.638 337.399 421.563 339.941 419.401C340.875 418.612 341.752 417.998 343.066 418.145C344.878 418.349 346.221 417.443 347.331 416.041C348.587 414.434 350.107 412.973 351.217 411.249C353.291 408.006 356.183 405.639 359.279 403.652C363.164 401.139 367.108 398.948 372.103 398.393C388.462 396.581 404.908 395.413 421.296 393.776C425.211 393.397 429.067 392.783 432.864 391.79C447.47 387.991 462.135 384.28 476.244 378.846C494.911 371.687 513.607 364.558 531.806 356.231C532.215 356.055 532.624 355.734 533.12 356.026C533.12 356.026 533.12 355.997 533.12 355.968C533.12 355.968 533.12 355.968 533.149 355.968C533.325 355.208 534.055 355.062 534.61 354.711C544.425 348.78 554.241 342.878 564.056 336.947C565.137 336.304 566.159 335.486 567.415 335.106C567.766 335.603 567.328 335.719 567.065 335.895C563.53 338.203 560.317 340.95 556.84 343.316C549.567 348.342 541.679 352.316 533.675 355.997C533.558 356.055 533.354 355.997 533.179 355.939C533.179 355.939 533.179 355.968 533.179 355.997C533.179 355.997 533.149 355.997 533.12 355.997C532.711 356.874 531.776 357.049 531.046 357.429C506.917 369.7 482.35 381.096 456.935 390.416C431.345 399.766 405.58 408.678 378.851 414.522C363.252 417.911 347.886 422.44 332.608 427.115C332.053 427.29 331.528 427.436 330.739 427.67C331.002 426.589 331.674 426.209 332.229 425.741L332.229 425.771ZM348.295 427.962C365.063 423.433 381.86 419.109 398.745 415.106C409.057 412.652 419.135 409.379 429.154 405.873C447.091 399.591 465.114 393.484 482.642 386.004C486.322 384.427 490.003 382.82 493.742 381.183C493.801 382.294 492.924 382.381 492.399 382.673C480.071 389.364 467.393 395.354 454.364 400.584C444.812 404.412 435.318 408.415 426.175 413.148C413.993 419.43 401.111 423.755 387.702 426.647C377.157 428.926 366.611 431.176 355.92 432.637C353.174 433.017 350.457 433.192 347.711 433.104C343.797 432.988 339.882 433.484 335.968 433.835C334.04 433.981 332.112 434.069 330.184 434.185L330.067 433.543C336.026 431.293 342.161 429.627 348.325 427.991L348.295 427.962ZM325.598 399.942C327.35 392.082 329.57 384.368 330.564 376.362C332.141 363.623 333.835 350.884 333.193 337.998C332.959 333.119 333.134 328.181 333.251 323.302C333.981 287.129 335.822 251.015 337.312 214.872C337.75 204.47 337.837 194.127 336.435 183.754C335.471 176.479 335.471 169.087 334.945 161.753C333.894 146.501 332.813 131.249 331.761 115.968C331.674 114.945 331.703 113.893 331.674 112.286C332.667 113.689 332.755 114.741 333.017 115.734C336.464 128.356 338.539 141.242 339.999 154.185C343.125 181.768 345.725 209.379 348.734 236.99C351.333 260.745 351.012 284.587 348.734 308.342C347.39 322.308 346.718 336.304 344.702 350.212C342.424 365.756 339.298 381.125 333.835 395.88C331.06 403.419 328.022 410.869 324.546 418.115C323.261 420.803 321.362 423.024 319.346 425.245C323.202 417.239 323.728 408.444 325.598 399.971L325.598 399.942ZM295.86 352.491C295.012 344.368 295.246 336.216 295.421 328.093C295.568 320.351 295.421 312.637 294.574 304.894C293.055 291.161 291.77 277.399 290.426 263.638C290.017 259.343 289.637 255.047 289.55 250.723C289.287 237.633 287.33 224.748 284.847 211.921C283.298 204.003 282.334 196.026 281.604 188.05C280.611 177.502 279.91 166.925 279.092 156.377C279.034 155.442 278.829 154.478 279.384 153.543C281.721 160.38 283.415 167.305 284.613 174.375C287.388 190.621 290.076 206.866 292.822 223.112C293.26 225.624 293.64 228.166 294.253 230.621C296.824 240.935 297.963 251.454 298.518 262.031C298.898 269.481 299.57 276.903 300.446 284.295C301.089 290.022 301.644 295.807 301.936 301.592C302.929 320 304.302 338.378 305.763 356.757C306.756 369.028 306.493 381.242 305.032 393.455C303.893 403.097 302.462 412.681 300.855 422.264C299.57 430.036 296.532 437.107 292.676 443.857C292.5 444.207 292.296 444.529 292.033 444.821C291.945 444.938 291.712 444.938 291.39 445.026C291.069 444.178 291.361 443.331 291.478 442.484C292.15 437.049 292.822 431.585 293.552 426.15C295.012 415.047 295.334 403.886 295.451 392.695C295.567 382.206 295.86 371.717 296.21 361.227C296.298 358.276 296.21 355.354 295.86 352.432L295.86 352.491ZM275.382 469.861C286.015 462.147 296.444 454.142 307.048 446.428C312.102 442.746 317.973 439.942 324.663 439.854C329.366 439.766 334.04 439.299 338.743 438.919C342.365 438.627 345.958 438.364 349.61 438.451C353.349 438.539 357.059 437.955 360.71 437.341C373.096 435.296 385.365 432.695 397.547 429.715C408.297 427.085 418.434 422.936 428.249 418.028C440.459 411.892 453.138 406.925 465.699 401.695C466.108 401.519 466.546 401.256 467.042 401.461C466.926 402.337 466.108 402.396 465.582 402.717C451.034 411.045 435.932 418.32 420.624 425.128C406.165 431.527 391.208 436.552 376.222 441.461C367.196 444.441 358.052 447.071 348.967 449.847C339.415 452.798 329.57 454.697 319.901 457.21C309.531 459.898 299.511 463.579 289.345 466.91C284.876 468.371 280.348 469.657 275.849 471.059C275.294 471.234 274.769 471.556 274.097 471.877C274.097 470.416 274.885 470.241 275.411 469.861L275.382 469.861ZM300.212 468.868C309.998 465.362 320.018 462.586 330.125 460.19C336.523 458.671 342.92 457.18 349.23 455.34C367.488 450.051 385.599 444.237 403.477 437.721C404.295 437.429 405.084 436.961 406.72 437.137C403.214 439.474 400.088 441.227 396.904 442.863C374.966 454.2 351.947 462.79 328.227 469.511C315.87 473.017 303.28 475.53 290.455 476.757C283.24 477.458 276.054 478.481 268.926 479.795C268.167 479.942 267.407 480.204 266.355 479.883C267.173 478.773 268.371 478.744 269.364 478.451C279.647 475.237 290.076 472.491 300.271 468.868L300.212 468.868ZM264.807 370.489C264.457 353.221 262.908 336.012 261.857 318.802C260.951 303.725 258.936 288.736 258.176 273.66C257.563 262.089 256.423 250.577 255.576 239.036C254.583 225.712 252.626 212.535 250.406 199.386C249.851 196.114 249.179 192.841 249.237 189.481C251.428 199.708 255.664 209.291 257.709 219.489C259.753 229.686 261.828 239.854 263.785 250.08C266.385 263.871 268.751 277.692 270.854 291.57C271.877 298.378 272.432 305.215 272.285 312.082C272.169 317.195 272.432 322.279 272.928 327.363C275.177 350.212 276.112 373.148 276.346 396.114C276.492 410.928 275.616 425.712 272.899 440.321C271.292 448.941 267.933 457.005 264.924 465.478C264.135 464.485 264.457 463.725 264.544 463.053C266.706 445.288 266.326 427.436 265.946 409.584C265.654 396.552 265.099 383.521 264.807 370.489ZM237.319 448.093C237.319 447.392 237.26 446.72 237.143 446.048C235.274 435.792 234.894 425.391 234.427 415.018C234.222 410.139 233.579 405.23 232.966 400.38C230.483 380.92 227.445 361.578 222.566 342.498C219.236 329.379 215.731 316.289 212.839 303.082C210.385 291.863 207.259 280.818 204.776 269.627C200.073 248.356 196.188 226.939 193.734 205.259C192.303 192.695 190.462 180.161 187.57 167.83C187.454 167.363 187.454 166.895 187.395 166.428C187.6 166.399 187.775 166.34 187.979 166.311C189.849 170.928 191.689 175.573 193.238 180.307C197.444 193.075 200.979 206.048 204.689 218.963C207.96 230.358 210.356 242.016 213.219 253.528C219.558 279.24 225.634 305.011 231.33 330.898C233.433 340.482 236.004 349.949 237.64 359.62C238.253 363.302 239.042 366.954 239.568 370.635C241.642 384.602 244.008 398.539 245.936 412.505C246.959 419.781 248.916 426.91 249.412 434.273C249.88 441.227 250.581 448.152 250.639 455.135C250.698 462.498 249.179 469.569 246.491 476.348C244.651 480.964 243.979 481.402 239.714 483.623C238.779 483.156 239.101 482.279 239.071 481.549C238.341 470.387 237.757 459.255 237.377 448.064L237.319 448.093ZM212.342 510.066C226.831 505.04 241.846 503.082 257.066 502.001C279.063 500.453 301.059 498.671 322.91 495.573C341.81 492.885 360.243 488.386 378.209 481.928C386.037 479.123 393.808 476.085 401.607 473.134C419.514 466.355 436.107 457.18 451.881 446.457C460.645 440.497 469.35 434.478 478.085 428.488C478.903 427.933 479.721 427.436 480.831 426.764C480.626 427.991 479.896 428.225 479.37 428.605C471.979 433.923 464.939 439.737 457.782 445.347C448.785 452.389 439.028 458.145 428.716 463.083C410.926 471.585 393.37 480.497 375.579 488.97C361.149 495.866 346.397 502.001 330.914 506.238C318.791 509.569 306.61 512.549 294.195 514.361C277.66 516.786 261.01 517.37 244.329 516.348C233.375 515.676 222.391 515.5 211.495 514.244C210.268 514.098 208.983 514.127 207.873 513.513C208.603 511.205 210.502 510.708 212.371 510.036L212.342 510.066ZM192.42 493.528C191.426 488.824 190.55 484.091 189.44 479.416C186.519 466.998 184.474 454.434 182.371 441.841C178.924 420.862 174.659 400 170.773 379.08C167.326 360.467 163.266 341.972 160.462 323.243C159.79 318.685 158.826 314.185 157.482 309.744C156.956 308.079 156.576 306.326 156.314 304.602C154.123 290.139 150.997 275.88 148.455 261.475C146.235 248.912 144.57 236.289 142.671 223.667C142.613 223.316 142.467 222.907 143.051 222.469C143.343 223.521 143.694 224.514 143.869 225.508C146.586 239.386 150.646 252.914 153.597 266.735C155.963 277.779 159.936 288.386 162.974 299.226C167.735 316.231 172.964 333.09 176.411 350.446C176.791 352.257 177.229 354.098 177.784 355.851C182.137 369.642 184.824 383.784 187.132 398.042C188.768 408.327 191.017 418.466 193.384 428.605C193.793 430.329 194.172 432.053 194.377 433.806C196.246 448.999 199.109 464.047 201.037 479.211C202.001 486.779 203.491 494.288 203.783 501.972C203.871 504.368 203.257 505.858 201.096 506.852C199.518 507.582 198.087 508.605 196.217 509.715C194.406 504.134 193.53 498.817 192.42 493.557L192.42 493.528ZM159.322 484.12C156.576 473.893 153.801 463.667 152.019 453.207C151.523 450.314 150.705 447.48 149.828 444.675C143.957 426.034 139.108 407.1 135.339 387.962C132.272 372.272 129.263 356.581 125.845 340.979C122.398 325.172 119.798 309.189 118.016 293.061C117.023 283.915 115.387 274.828 114.336 265.654C113.138 255.018 111.677 244.441 110.597 233.806C110.1 228.897 110.188 223.901 110.012 218.963C111.181 220.073 111.268 221.446 111.444 222.732C112.466 230.416 113.576 238.101 114.453 245.785C115.942 258.554 117.724 271.264 120.12 283.915C122.048 294.025 124.443 304.047 126.955 314.039C129.672 324.821 131.834 335.661 133.47 346.647C135.777 361.987 139.195 377.093 143.665 391.965C145.447 397.867 146.995 403.857 148.631 409.817C150.734 417.473 152.779 425.157 155.291 432.695C157.102 438.101 158.446 443.623 159.819 449.145C163.587 464.368 167.239 479.649 171.329 494.784C173.286 501.943 176.178 508.868 178.602 515.909C179.888 519.62 180.443 518.89 176.703 520.964C174.863 521.987 174.688 521.928 173.811 520.088C168.29 508.371 162.682 496.742 159.293 484.12L159.322 484.12ZM146.966 519.942C143.11 512.111 139.604 504.134 137.296 495.661C136.04 491.045 134.025 486.603 132.681 482.016C123.216 449.233 112.203 416.947 102.709 384.164C96.75 363.623 91.1997 342.995 86.0584 322.25C82.8451 309.394 79.7486 296.538 77.7038 283.448C76.3308 274.682 76.3892 265.887 76.7397 256.947C76.9442 257.589 77.2071 258.203 77.3532 258.846C80.8003 275.354 84.9483 291.716 89.3302 307.991C92.2514 318.802 96.0781 329.291 99.6128 339.898C104.52 354.507 109.165 369.145 113.138 384.047C114.803 390.299 116.819 396.465 118.455 402.717C125.495 429.978 131.98 457.356 137.939 484.85C139.75 493.207 142.467 501.3 144.979 509.452C146.352 513.952 147.725 518.422 149.273 522.922C147.988 522.25 147.55 521.052 146.995 519.971L146.966 519.942ZM157.482 540.979C158.563 541.68 159.994 541.096 161.017 541.914L161.075 541.914C161.075 541.914 161.133 541.914 161.163 541.914C162.302 541.505 163.441 541.329 164.493 542.148L164.61 542.148L164.61 542.206L164.493 542.148C163.354 542.264 162.243 542.557 161.163 541.914C161.163 541.914 161.104 541.914 161.075 541.914C161.075 541.914 161.017 541.885 160.987 541.855C158.563 542.615 156.138 542.001 153.334 542.031C154.765 540.628 155.904 539.927 157.453 540.92L157.482 540.979ZM123.917 538.817C120.12 534.931 117.082 530.489 114.073 526.019C111.882 522.776 109.808 519.445 107.529 516.231C99.9049 505.478 94.8804 493.47 90.6739 481.081C86.8764 469.92 83.4293 458.67 80.216 447.363C76.5645 434.536 73.468 421.534 71.0141 408.415C68.0345 392.403 64.237 376.567 60.5855 360.701C57.6934 348.079 55.0644 335.398 52.7859 322.659C52.6106 321.724 52.5521 320.789 52.4353 319.854C52.5813 319.825 52.7274 319.795 52.8734 319.737C53.5161 321.841 54.2172 323.915 54.8015 326.048C60.9068 347.962 67.4503 369.759 73.4096 391.731C78.843 411.804 84.5686 431.79 90.4986 451.717C94.6176 465.624 99.4083 479.357 104.696 492.885C109.837 506.034 115.679 518.89 121.931 531.57C123.391 534.551 124.677 537.589 126.838 540.774C125.203 540.365 124.589 539.518 123.888 538.787L123.917 538.817ZM111.444 562.746C117.783 559.649 124.122 556.552 130.461 553.426C131.805 552.754 132.973 552.111 134.492 553.28C135.514 554.069 136.712 553.455 137.764 552.725C143.548 548.751 149.974 547.231 156.927 547.319C166.275 547.436 175.506 548.488 184.708 550.007C201.271 552.725 217.98 553.806 234.748 554.156C240.24 554.273 245.732 554.536 251.194 554.799C259.52 555.208 267.845 555.12 276.171 554.595C284.116 554.098 291.945 552.666 299.716 551.059C309.414 549.072 319.171 547.261 328.606 544.193C344.556 539.05 360.681 534.375 375.901 527.188C376.573 526.866 377.274 526.662 378.617 526.194C376.485 529.087 374.236 530.782 371.869 532.33C366.524 535.836 360.915 538.846 355.16 541.592C336.961 550.387 318.09 557.604 299.073 564.354C294.253 566.077 289.287 567.246 284.379 568.619C280.699 569.671 276.959 570.548 273.396 571.892C266.063 574.638 258.468 575.924 250.785 576.976C237.406 578.817 223.998 578.787 210.59 577.531C201.914 576.713 193.238 575.749 184.591 574.755C176.002 573.762 167.589 571.833 159.235 569.73C147.082 566.662 134.726 565.551 122.281 565.055C119.331 564.938 116.41 564.763 113.489 564.529C112.437 564.441 111.385 564.178 110.363 564.003C110.363 563.068 111.035 563.009 111.502 562.776L111.444 562.746ZM102.68 567.217C107.558 569.233 112.729 569.7 117.929 569.963C124.998 570.314 132.038 570.665 139.049 571.395C144.336 571.921 149.536 572.856 154.678 574.171C179.04 580.307 203.812 583.17 228.906 583.696C241.408 583.959 253.765 582.323 265.976 579.781C266.56 579.664 267.144 579.547 267.699 579.343C279.063 575.223 290.894 572.768 302.345 568.912C311.079 565.961 319.58 562.367 328.227 559.153C329.074 558.831 329.892 558.218 331.031 558.364C330.388 559.357 329.454 559.649 328.606 560.029C323.494 562.279 318.411 564.616 313.095 566.399C310.787 567.188 308.45 568.006 306.23 569.058C293.932 574.814 281.049 578.963 268.254 583.345C264.632 584.602 260.776 584.777 256.978 585.274C250.668 586.092 244.329 586.764 238.02 587.757C231.535 588.78 224.991 589.511 218.477 590.358C215.147 590.796 211.816 590.738 208.486 590.592C198.7 590.183 188.914 589.54 179.333 587.29C177.726 586.91 176.061 586.676 174.396 586.472C163.938 585.274 153.801 582.586 143.694 579.752C140.656 578.904 137.618 578.115 134.55 577.619C128.416 576.596 122.486 574.989 116.731 572.652C112.641 570.986 108.464 569.642 104.082 568.912C102.943 568.736 101.804 568.386 100.343 568.035C101.219 566.954 101.921 566.925 102.738 567.246L102.68 567.217ZM96.9545 551.497C96.9545 551.497 96.9545 551.527 96.9836 551.527C96.9836 551.527 96.9837 551.556 97.0129 551.585C98.2106 551.76 98.3567 552.929 98.9409 553.718C97.9185 553.367 97.4219 552.52 97.0129 551.585C96.9837 551.585 96.9252 551.585 96.8961 551.585C96.8961 551.585 96.9545 551.527 96.9545 551.497Z" fill="#CEB5A7"/>
</g>
<defs>
<clipPath id="clip0_1_9">
<rect width="750" height="600" fill="white" transform="translate(750 600) rotate(-180)"/>
</clipPath>
</defs>
</svg>
