<svg width="291" height="340" viewBox="0 0 291 340" fill="none" xmlns="http://www.w3.org/2000/svg">
<g opacity="0.2">
<path d="M429.472 149.213C428.943 148.352 428.463 147.491 428.067 146.563C425.439 140.619 423.291 134.477 421.274 128.284C417.391 116.396 414.052 104.343 409.822 92.5707C407.111 85.0373 404.93 77.3216 402.401 69.7385C399.79 61.9235 396.254 54.4894 392.816 47.0222C389.924 40.7305 386.007 35.0514 381.413 29.8856C379.281 27.5013 377.331 24.9515 375.133 22.6336C375.513 22.17 376.025 22.0706 376.488 21.8719C381.082 19.9182 385.726 18.0638 390.271 16.0107C398.997 12.0867 407.938 8.79182 417.093 6.0599C420.118 5.16581 423.076 4.05649 426.067 3.04651L421.291 0C418.333 0.960312 415.375 1.92062 412.433 2.88094C406.467 4.80156 400.501 6.73874 394.75 9.27198C390.932 10.9442 387.114 12.5834 383.28 14.206C380.041 15.5857 376.697 15.8948 373.249 15.1332C370.654 14.5537 368.043 14.0735 365.564 12.9973C361.945 11.4244 358.144 10.3813 354.243 9.71902C352.707 9.4541 351.219 9.05673 349.715 8.62625C343.898 6.9871 338.064 5.41417 332.032 4.73533C331.09 4.63599 330.165 4.48697 329.239 4.27173C323.637 2.98028 317.952 2.56635 312.234 2.33455C310.234 2.25177 308.251 2.21865 306.251 2.46701C302.566 2.93061 298.864 3.34453 295.195 3.92403C291.526 4.50353 287.824 4.9009 284.139 5.38106C281.891 5.67908 279.577 5.81154 277.429 6.54005C270.356 8.97395 263.216 11.2588 256.407 14.4378C254.639 15.2656 252.788 15.8617 250.97 16.5571C247.235 17.981 243.401 19.2393 240.096 21.5242C236.625 23.925 233.138 26.2927 229.668 28.6935C227.09 30.4651 224.429 32.0214 221.586 33.2963C220.711 33.6771 219.95 34.207 219.19 34.7699C216.232 36.9554 213.687 39.588 211.092 42.1544C210.745 42.5021 210.266 42.8498 210.696 43.4127C211.142 44.0253 210.646 44.1578 210.249 44.3565C204.531 47.0884 199.21 50.5488 193.806 53.8106C191.244 55.3504 188.831 57.122 186.468 58.9929C179.163 64.8045 172.387 71.2121 165.232 77.1726C160.191 81.3781 154.985 85.3187 149.052 88.1997C148.028 88.6964 147.201 90.7329 147.581 91.7594C147.879 92.5707 148.854 92.9516 149.647 92.5045C150.077 92.2561 150.424 91.8919 150.804 91.5442C151.68 90.766 152.556 90.021 153.597 89.4746C158.77 86.693 163.942 83.8948 168.9 80.6993C175.379 76.5269 182.188 72.8678 188.616 68.5961C192.037 66.3277 195.409 63.9601 199.061 62.056C205.01 58.9433 211.059 56.0292 217.356 53.6616C221.256 52.2045 225.107 50.6151 228.941 49.0256C240.03 44.4393 251.284 40.3496 263.035 37.7667C265.1 37.3197 267.15 36.8561 269.199 36.3428C274.388 35.0183 279.66 34.3229 284.982 34.058C296.104 33.5281 307.16 34.4222 318.216 35.4156C323.752 35.9123 329.272 36.2269 334.825 35.9455C335.453 35.9123 336.114 35.813 336.742 35.9951C336.693 36.4422 336.379 36.4918 336.147 36.6077C330.76 39.2238 325.488 42.0881 320.381 45.2174C319.092 46.0122 317.72 46.2274 316.249 46.2109C314.349 46.1943 312.514 45.7307 310.647 45.532C304.136 44.8201 297.591 44.6876 291.063 44.3068C281.726 43.7604 272.422 44.1412 263.183 45.4989C256.044 46.542 249.037 48.2474 242.063 50.168C233.089 52.635 224.545 56.1948 216.182 60.2016C206.118 65.0032 196.169 70.0531 186.121 74.8878C180.237 77.7025 174.668 80.9808 169.528 85.0041C163.199 89.9713 156.952 95.0543 150.473 99.8227C144.094 104.508 138.36 109.889 132.608 115.271C126.262 121.231 120.048 127.341 113.768 133.384C113.091 134.046 112.496 134.791 111.967 135.553C111.587 136.116 111.587 136.712 112.033 137.242C112.479 137.772 113.041 137.888 113.686 137.672C114.215 137.49 114.644 137.126 115.091 136.795C116.181 135.95 117.305 135.122 118.412 134.295C124.527 129.675 130.609 125.039 136.244 119.824C143.665 112.953 151.349 106.412 159.712 100.7C164.984 97.1074 170.256 93.4979 175.494 89.8719C179.279 87.2393 183.229 84.8717 187.212 82.5537C195.029 78.0336 203.424 74.805 211.852 71.6757C217.257 69.6723 222.694 67.7351 228.263 66.1953C242.624 62.2216 257.366 60.7645 272.141 59.5062C281.313 58.728 290.518 58.2644 299.624 56.7412C299.822 56.7081 300.054 56.6087 300.219 56.9895C299.046 57.6849 297.872 58.3969 296.699 59.0757C296.467 59.2082 296.17 59.3406 295.922 59.3075C295.013 59.2579 294.319 59.6883 293.658 60.2182C291.592 61.8076 289.262 62.7845 286.75 63.3971C279.61 65.1191 272.339 66.0297 265.067 66.841C257.151 67.7185 249.4 69.308 241.765 71.5432C233.882 73.8447 226.131 76.56 218.529 79.6893C212.365 82.2226 206.382 85.1035 200.548 88.3487C196.813 90.4183 193.26 92.8191 189.575 94.9715C181.229 99.8393 172.487 103.962 164.009 108.581C159.034 111.28 153.911 113.681 149.036 116.595C143.896 119.675 138.889 122.97 133.831 126.182C131.865 127.423 130.047 128.897 128.246 130.371C123.618 134.195 118.809 137.805 113.62 140.785C104.679 145.918 96.9942 152.59 89.4251 159.461C88.8136 160.024 88.1691 160.654 88.0699 161.514C87.9873 162.392 87.4089 162.723 86.7809 163.104C83.9218 164.809 81.1123 166.614 78.4185 168.568C72.5517 172.823 67.3624 177.823 62.4706 183.155C59.6942 186.185 56.9178 189.264 54.9842 192.907C54.0091 194.728 52.7035 196.152 51.1831 197.443C50.5551 197.99 49.9106 198.52 49.2826 199.066C45.7625 202.228 41.8953 204.911 38.1273 207.758C32.2769 212.196 27.2695 217.577 21.6174 222.246C16.2629 226.683 10.9249 231.071 5.05803 234.813C4.90929 234.896 4.76056 234.978 4.64487 235.094C4.01687 235.641 3.85161 236.369 4.18213 237.031C4.52919 237.694 5.23982 237.992 6.04961 237.694C6.56193 237.512 7.02467 237.18 7.50393 236.899C7.90056 236.651 8.28067 236.452 8.72688 236.733C9.90025 237.462 10.71 236.882 11.4537 236.005C13.7344 233.339 16.296 230.988 18.9732 228.72C22.576 225.657 26.4101 222.925 30.0789 219.961C31.8142 218.57 33.4834 217.08 35.3178 215.838C40.8046 212.146 46.2913 208.487 51.8607 204.944C58.1407 200.954 64.5034 197.112 70.8164 193.172C73.7416 191.35 76.4519 189.231 79.5093 187.608C82.8972 185.82 86.219 183.933 89.5904 182.095C94.7135 179.313 99.8202 176.499 105.076 174.015C113.554 170.008 122.131 166.217 130.873 162.806C137.55 160.206 144.342 157.955 151.118 155.67C157.001 153.683 163.017 152.027 168.834 149.891C175.974 147.275 183.014 144.411 190.005 141.398C190.335 141.249 190.649 140.934 191.062 141.199C191.062 141.265 191.062 141.331 191.029 141.365C188.682 143.633 186.319 145.901 183.956 148.153C183.708 148.401 183.377 148.617 183.063 148.501C181.857 148.07 181.014 148.732 180.188 149.395C178.023 151.15 175.527 152.193 172.834 152.756C167.611 153.849 162.472 155.173 157.299 156.498C152.572 157.723 147.78 158.667 143.136 160.223C138.674 161.73 134.162 163.137 129.716 164.727C126.014 166.051 122.296 167.359 118.693 168.982C111.108 172.409 103.572 175.952 96.1513 179.727C87.6403 184.082 79.3606 188.801 71.8906 194.844C66.4535 199.232 60.9667 203.57 55.3808 207.792C46.4566 214.53 38.1769 221.964 30.426 230.028C24.9227 235.757 19.1715 241.22 12.9246 246.138C11.1728 247.512 9.68541 249.168 8.34678 250.956C8.08236 251.304 7.85099 251.701 7.70225 252.115C7.47088 252.744 7.57004 253.34 8.08236 253.804C8.62773 254.317 9.28878 254.35 9.93331 254.002C10.3134 253.787 10.6605 253.506 11.024 253.241C18.2791 247.645 25.1706 241.601 31.8473 235.343C41.1681 226.617 51.3318 219.05 62.0079 212.113C68.1392 208.106 74.5514 204.546 80.8644 200.838C89.5738 195.705 98.5642 191.102 107.621 186.632C109.604 185.655 111.62 184.711 113.686 183.9C118.693 181.929 123.717 180.009 128.758 178.121C141.285 173.419 153.465 167.872 165.479 162.011C165.777 161.862 166.058 161.597 166.719 161.73C165.76 162.309 165.017 162.756 164.273 163.203C162.653 164.164 161.034 165.124 159.48 166.2C152.291 171.234 145.631 176.946 138.641 182.227C137.847 182.823 137.104 183.502 136.36 184.181C132.972 187.228 129.584 190.258 126.229 193.337C122.709 196.566 119.007 199.596 115.95 203.288C112.975 206.881 109.753 210.259 106.563 213.669C103.307 217.163 99.9689 220.59 97.0603 224.382C93.8542 228.571 90.4828 232.627 87.1775 236.733C78.7491 247.197 70.0232 257.43 61.0659 267.43C53.7116 275.643 47.2003 284.484 41.1681 293.706C40.8707 294.17 40.5401 294.65 40.4079 295.163C40.127 296.273 39.532 297.2 38.9536 298.144C38.4082 299.038 37.8959 299.965 37.334 300.859C36.5573 302.117 36.2267 303.508 35.8962 304.916C35.7475 305.594 35.8962 306.141 36.5077 306.488C37.1026 306.836 37.6976 306.704 38.1934 306.257C38.5239 305.959 38.8379 305.644 39.1023 305.296C43.8619 299.137 49.1008 293.392 54.1909 287.531C59.1819 281.769 64.9165 276.752 70.552 271.652C72.2873 270.079 73.8738 268.391 75.2951 266.536C79.2449 261.387 83.3765 256.337 87.7725 251.569C95.0275 243.687 102.002 235.541 109.356 227.759C112.132 224.812 114.644 221.633 117.57 218.819C124.494 212.163 131.352 205.44 137.897 198.42C143.532 192.36 149.416 186.549 155.266 180.704C157.514 178.469 159.894 176.383 162.092 174.114C165.579 170.522 169.396 167.293 173.098 163.948C173.924 163.203 174.85 162.558 175.924 161.713C175.742 162.657 175.346 163.137 175.015 163.634C168.867 173.104 163.728 183.155 158.737 193.271C155.58 199.662 153.498 206.484 151.498 213.305C148.937 222.014 147.367 230.938 146.044 239.896C144.987 247.164 144.441 254.483 143.681 261.768C142.69 271.272 141.533 280.775 141.45 290.345C141.417 294.849 141.632 299.352 141.5 303.839C141.252 311.853 141.797 319.833 142.111 327.831C142.243 330.993 142.524 334.155 143.103 337.285C143.185 337.781 143.268 338.278 143.4 338.758C143.599 339.454 144.012 339.95 144.805 339.934C145.499 339.901 145.912 339.503 146.127 338.858C146.309 338.278 146.573 337.699 146.656 337.103C147.135 333.907 147.714 330.728 147.978 327.533C149.184 313.062 151.234 298.723 153.481 284.385C154.291 279.169 155.266 273.97 154.903 268.639C154.836 267.646 154.919 266.636 155.051 265.642C156.109 257.662 157.117 249.664 158.737 241.767C160.406 233.604 162.67 225.574 164.587 217.461C165.744 212.527 166.95 207.626 168.652 202.858C171.611 194.596 174.106 186.168 177.329 178.005C180.651 169.578 183.956 161.15 188.335 153.203C190.55 149.196 193.062 145.421 196.582 142.424C198.565 140.735 200.548 139.03 202.532 137.358C202.664 137.258 202.812 136.96 203.093 137.308C203.027 137.49 202.961 137.689 202.862 137.871C201.193 140.818 199.639 143.832 198.136 146.878C195.805 151.613 193.574 156.415 192.136 161.514C190.633 166.813 188.963 172.045 187.393 177.31C184.832 185.936 182.402 194.596 180.7 203.454C179.312 210.673 177.94 217.875 177.411 225.193C176.469 238.29 176.222 251.403 176.42 264.516C176.503 270.079 176.618 275.626 176.222 281.189C175.891 285.842 175.594 290.511 175.395 295.163C175.18 300.28 175.213 305.396 175.627 310.495C175.841 313.045 176.007 315.595 175.875 318.145C175.577 323.989 175.841 329.817 176.37 335.629C176.42 336.126 176.453 336.622 176.536 337.119C176.651 337.897 177.015 338.493 177.858 338.642C178.701 338.791 179.444 338.543 179.841 337.765C180.403 336.655 181.279 335.646 181.146 334.238C181.097 333.708 181.328 333.145 181.46 332.616C183.361 324.022 184.7 315.346 185.361 306.588C185.906 299.336 186.798 292.1 187.129 284.832C187.245 282.216 187.476 279.616 187.757 277.017C188.732 267.894 189.443 258.754 189.971 249.598C190.368 242.446 190.732 235.276 191.558 228.157C192.302 221.799 193.442 215.524 194.268 209.182C195.739 197.874 197.673 186.665 200.598 175.638C202.928 166.829 205.523 158.104 208.283 149.411C210.299 143.053 212.894 136.911 214.844 130.52C215.951 126.894 217.868 123.599 221.553 121.678C221.405 122.672 220.843 123.433 220.496 124.294C217.471 131.828 214.397 139.311 211.885 147.044C208.745 156.696 206.399 166.515 205.291 176.598C203.49 193.056 203.655 209.547 204.895 226.038C205.622 235.79 206.977 245.492 208.117 255.195C208.349 257.181 208.63 259.168 209.043 261.122C210.266 267.066 211.555 272.977 212.827 278.904C213.439 281.736 214.249 284.501 215.158 287.249C216.001 289.782 216.86 292.299 217.108 294.998C217.174 295.71 217.356 296.422 217.703 297.067C218.066 297.763 218.579 298.21 219.438 298.044C220.165 297.895 220.529 297.349 220.463 296.389C220.413 295.511 220.314 294.617 220.083 293.756C219.686 292.299 219.471 290.825 219.455 289.302C219.405 285.411 219.306 281.52 219.322 277.629C219.355 264.963 219.438 252.281 219.488 239.614C219.554 225.16 219.587 210.722 219.653 196.268C219.686 185.936 219.769 175.588 220.793 165.29C221.041 162.69 221.223 160.074 221.239 157.475C221.289 146.199 223.371 135.271 226.577 124.526C227.404 121.761 228.412 119.046 229.817 116.496C230.725 114.84 231.535 113.068 233.056 111.893C235.7 109.856 238.113 107.555 240.674 105.452C241.071 105.121 241.402 104.608 242.162 104.591C242.046 104.939 241.98 105.187 241.881 105.419C240.674 108.466 239.369 111.479 238.245 114.542C235.072 123.135 233.238 132.043 231.932 141.083C230.775 149.014 230.395 157.011 229.635 164.975C228.346 178.337 228.147 191.731 229.552 205.093C231.089 219.795 232.659 234.498 234.146 249.201C235.237 260.013 237.22 270.642 240.294 281.073C241.054 283.64 241.93 286.156 242.938 288.623C243.55 290.097 244.707 290.246 245.798 289.12C246.508 288.375 246.673 287.514 246.541 286.504C246.078 282.861 245.533 279.235 245.236 275.576C244.608 267.43 244.178 259.268 243.583 251.122C243.087 244.25 242.972 237.346 242.046 230.508C241.798 228.687 241.815 226.849 241.881 225.011C241.98 221.849 242.046 218.686 242.178 215.507C243.038 195.738 243.947 175.985 244.393 156.2C244.459 153.584 244.475 150.968 244.409 148.368C244.145 137.854 245.335 127.506 247.814 117.307C248.491 114.559 249.169 111.81 249.516 108.995C250.144 104.012 252.078 99.6075 254.986 95.5676C255.895 94.3092 256.936 93.1668 257.663 91.776C258.044 91.0309 258.787 90.3852 260.01 90.1203C258.225 93.6635 257.184 97.1571 256.589 100.783C255.763 105.883 254.986 110.999 254.375 116.131C253.515 123.317 253.301 130.52 253.895 137.755C254.738 148.169 255.515 158.584 256.077 169.031C256.259 172.475 256.589 175.903 256.969 179.33C257.416 183.304 257.796 187.294 257.994 191.284C258.308 197.576 258.969 203.801 260.506 209.927C260.787 211.053 260.969 212.212 261.151 213.371C262.423 220.938 263.778 228.488 264.935 236.071C266.555 246.552 269.381 256.701 272.934 266.669C273.198 267.397 273.479 268.126 273.826 268.821C274.487 270.129 275.661 270.56 276.867 270.013C277.892 269.55 278.09 268.854 277.66 267.331C276.256 262.281 275.396 257.132 274.983 251.916C274.537 246.37 274.239 240.823 273.76 235.293C273.297 229.928 272.719 224.58 271.694 219.266C270.653 213.868 269.579 208.454 269.381 202.924C268.934 190.804 267.282 178.784 266.208 166.73C265.861 162.789 265.596 158.865 265.761 154.908C265.827 153.07 265.761 151.233 265.827 149.411C266.075 143.302 265.133 137.225 265.431 131.099C265.811 123.599 265.728 116.098 265.993 108.598C266.241 101.478 267.315 94.4417 268.273 87.3884C268.521 85.5671 268.967 83.7624 270.207 82.3053C271.76 80.4675 273.909 79.3913 275.859 77.7852C275.958 78.6628 275.661 79.1429 275.512 79.6562C274.537 83.0173 273.149 86.2459 272.554 89.7064C271.05 98.2167 270.471 106.81 270.554 115.436C270.686 128.384 271.199 141.331 272.455 154.229C272.752 157.276 272.901 160.322 272.835 163.385C272.752 167.293 273.116 171.151 273.661 175.009C275.148 185.29 277.049 195.523 279.032 205.722C280.272 212.047 281.346 218.421 283.428 224.547C284.982 229.101 286.023 233.737 286.75 238.472C287.014 240.227 287.312 241.999 287.775 243.704C289.725 250.774 291.939 257.761 294.17 264.765C294.319 265.228 294.517 265.708 294.782 266.122C295.162 266.702 295.757 266.834 296.401 266.619C296.98 266.437 297.31 265.973 297.343 265.377C297.36 264.996 297.294 264.599 297.161 264.235C296.682 262.745 296.467 261.205 296.17 259.682C295.625 256.999 295.542 254.267 295.112 251.585C294.121 245.327 292.732 239.134 292.137 232.809C291.906 230.442 291.443 228.091 291.08 225.723C290.187 219.895 289.163 214.1 288.683 208.222C288.022 199.91 287.262 191.615 286.733 183.287C286.337 176.962 285.61 170.671 285.147 164.346C284.139 150.537 283.131 136.745 282.866 122.903C282.651 111.959 282.106 101.015 282.354 90.0706C282.47 85.0704 282.8 80.0867 283.593 75.1361C283.726 74.3083 283.957 73.5135 284.254 72.7353C284.668 71.5929 285.577 71.1127 286.816 70.8147C286.601 71.7253 286.436 72.487 286.271 73.232C285.659 75.9971 285.031 78.7621 285.081 81.6265C285.163 86.4777 285.56 91.2793 286.023 96.0974C286.221 98.0843 286.436 100.088 286.915 102.025C287.444 104.194 287.857 106.379 288.122 108.581C288.65 112.886 289.394 117.158 290.022 121.446C291.576 131.894 293.509 142.259 295.955 152.557C299.045 165.588 301.772 178.701 305.078 191.682C307.755 202.179 309.936 212.808 313.093 223.173C315.605 231.419 317.803 239.747 321.125 247.711C321.422 248.423 321.604 249.184 321.819 249.946C323.273 255.012 325.008 260.013 326.793 264.98C326.942 265.394 327.107 265.824 327.355 266.172C327.934 266.967 328.958 267.281 329.718 266.967C330.479 266.652 330.76 266.023 330.627 264.864C330.578 264.483 330.495 264.102 330.413 263.721C329.95 261.437 329.487 259.152 329.008 256.867C328.198 252.943 327.818 248.953 326.876 245.045C325.157 237.909 324.133 230.64 323.273 223.355C321.67 209.646 319.257 196.086 316.068 182.658C315.44 180.009 314.531 177.426 314.018 174.76C312.019 164.611 309.226 154.643 306.763 144.61C304.136 133.897 302.384 123.052 301.029 112.125C300.615 108.764 300.186 105.402 300.12 101.992C300.021 97.3723 299.74 92.7694 298.913 88.2162C298.731 87.2393 298.632 86.2294 298.616 85.2359C298.451 78.6297 297.988 72.0234 297.591 65.4337C297.509 64.1091 297.839 63.2812 299.045 62.6024C302.979 60.4334 306.862 58.1651 310.763 55.9299C310.944 55.8305 311.159 55.7643 311.358 55.6981C311.82 56.1948 311.639 56.7908 311.688 57.3207C311.87 59.589 312.035 61.8573 312.382 64.1256C313.804 73.5135 315.225 82.9179 316.613 92.3224C316.927 94.4748 317.307 96.5941 317.77 98.7134C318.745 103.051 319.786 107.373 320.497 111.777C322.05 121.264 323.703 130.751 326.628 139.941C326.843 140.619 327.008 141.348 327.14 142.043C329.09 151.878 332.049 161.432 334.742 171.068C336.511 177.393 338.791 183.552 340.163 189.976C341.849 197.857 343.981 205.639 345.766 213.487C347.6 221.567 350.095 229.465 352.921 237.263C353.384 238.538 354.045 238.853 355.367 238.406C356.706 237.959 357.136 237.296 356.739 236.055C356.326 234.73 355.929 233.405 355.632 232.048C353.136 220.524 351.517 208.851 349.831 197.178C349.517 195.026 349.186 192.89 348.773 190.754C347.269 182.89 345.65 175.058 344.46 167.144C344.278 165.886 344.014 164.627 343.634 163.402C342.906 161.117 342.411 158.783 342.08 156.415C341.386 151.348 340.312 146.348 339.37 141.315C337.271 130.288 335.205 119.244 333.073 108.234C331.751 101.462 330.594 94.6735 329.487 87.8685C328.628 82.6034 327.834 77.3217 326.628 72.1227C324.992 65.0363 323.785 57.8505 321.984 50.7806C321.918 50.5157 321.868 50.2342 321.802 49.9693C321.72 49.6051 321.868 49.3236 322.182 49.1249C323.224 48.5123 324.199 47.8003 325.273 47.3533C325.752 47.701 325.802 48.1812 325.95 48.5785C327.19 52.039 328.429 55.4828 329.636 58.9433C329.9 59.6718 330.082 60.4334 330.28 61.195C332.544 70.2518 334.809 79.3085 337.073 88.3652C338.659 94.7232 340.923 100.899 342.543 107.257C343.65 111.562 344.873 115.833 346.113 120.105C347.964 126.463 349.666 132.871 350.591 139.427C352.112 150.173 354.541 160.736 357.103 171.267C359.301 180.307 360.738 189.479 361.813 198.685C362.969 208.52 364.672 218.256 366.737 227.925C366.804 228.19 366.87 228.471 366.985 228.703C367.25 229.25 367.712 229.548 368.324 229.531C369.002 229.498 369.481 229.15 369.679 228.488C369.778 228.124 369.795 227.726 369.811 227.329C369.944 225.061 369.993 222.776 370.241 220.507C370.704 216.004 370.654 211.5 370.241 207.013C369.679 200.937 368.803 194.877 368.109 188.801C367.531 183.718 366.622 178.684 366.076 173.601C364.986 163.7 363.333 153.898 361.201 144.163C359.582 136.778 358.045 129.394 356.706 121.943C354.591 110.171 351.5 98.6306 348.03 87.1897C347.517 85.4843 347.005 83.7789 346.707 82.0239C345.485 74.5897 343.435 67.3874 341.204 60.2182C340.262 57.1882 339.138 54.2245 337.75 51.3767C336.478 48.7772 335.304 46.1446 334.048 43.5452C333.767 42.9326 333.734 42.5352 334.428 42.2206C335.932 41.5086 337.42 40.747 338.891 39.9854C339.436 39.7039 339.783 39.7867 340.147 40.3165C340.923 41.4755 341.667 42.6511 342.163 43.9591C344.675 50.6316 346.889 57.4035 348.492 64.3243C350.459 72.8181 352.36 81.345 354.359 89.8388C356.128 97.3061 357.83 104.773 359.829 112.191C360.854 115.949 361.994 119.658 363.003 123.417C365.184 131.579 367.729 139.626 370.423 147.64C373.117 155.703 375.877 163.75 377.959 171.995C381.248 184.992 384.454 197.99 386.272 211.285C386.453 212.577 386.916 213.173 387.726 213.222C388.585 213.289 389.197 212.659 389.379 211.302C389.825 207.99 390.288 204.679 390.04 201.334C389.726 196.897 389.461 192.46 389.56 188.006C389.626 184.943 389.296 181.896 388.833 178.866C388.238 174.959 387.511 171.085 386.652 167.227C384.553 157.905 382.057 148.666 379.727 139.394C377.744 131.579 375.298 123.897 373.017 116.165C369.613 104.641 366.209 93.1337 362.457 81.7424C361.432 78.6297 360.243 75.5666 359.482 72.3711C357.912 65.5827 355.152 59.1751 353.268 52.486C353.153 52.0555 352.954 51.6581 352.789 51.2442C350.823 46.6413 348.724 42.1047 345.799 38.0151C345.022 36.9389 345.055 36.8892 346.327 36.2269C348.393 35.1507 350.459 34.0745 352.541 33.0149C353.665 32.4354 353.665 32.4519 354.425 33.4288C355.962 35.4156 357.07 37.6674 358.16 39.9192C361.68 47.1712 365.085 54.4894 367.944 62.0063C371.1 70.3014 374.092 78.6959 376.538 87.2559C381.826 105.8 387.048 124.377 392.254 142.937C395.725 155.306 399.509 167.558 403.327 179.827C403.476 180.307 403.641 180.787 403.922 181.201C404.385 181.88 405.31 182.112 406.004 181.813C406.748 181.482 407.095 180.886 406.996 180.075C406.946 179.578 406.814 179.098 406.715 178.601C405.657 173.816 404.831 168.998 404.12 164.164C402.616 154.097 400.666 144.13 398.369 134.212C396.336 125.437 394.27 116.678 392.618 107.82C391.213 100.27 389.428 92.8025 387.329 85.4346C385.528 79.0767 383.594 72.7519 381.462 66.4768C379.182 59.7877 376.571 53.2311 372.621 47.3202C370.985 44.8697 369.365 42.4193 367.729 39.9688C365.481 36.5912 363.085 33.3129 360.028 30.6141C359.747 30.3657 359.35 30.1836 359.383 29.5379C362.292 27.9981 365.316 26.5245 368.374 25.1171C369.002 24.8356 369.299 25.2165 369.597 25.6304C371.381 28.114 373.199 30.5478 374.538 33.3294C376.637 37.684 378.851 41.9722 381.115 46.244C383.181 50.1183 385.016 54.1086 386.668 58.1816C389.461 65.086 391.692 72.2055 394.221 79.2092C397.245 87.5705 399.906 96.0643 403.426 104.243C408.731 116.529 414.201 128.748 420.002 140.835C421.704 144.394 423.704 147.805 425.522 151.299C426.745 153.65 427.323 153.733 429.058 151.762C430 150.703 430.05 150.372 429.273 149.113L429.472 149.213ZM165.694 166.598C158.968 172.972 152.308 179.413 145.78 186.002C137.814 194.033 130.212 202.444 122.098 210.325C118.875 213.454 115.487 216.434 112.529 219.812C107.224 225.872 101.589 231.617 96.3497 237.727C92.4494 242.28 88.2022 246.535 84.2854 251.072C80.2199 255.774 76.1379 260.476 72.4195 265.46C71.2957 266.983 69.9075 268.275 68.5027 269.55C62.7846 274.715 57.0004 279.832 51.9433 285.693C50.1585 287.746 48.3902 289.815 46.6218 291.885C46.1921 292.382 45.779 292.879 44.9031 293.408C48.4728 288.358 51.6458 283.474 55.3477 278.971C61.0163 272.066 66.9327 265.361 72.8822 258.688C77.8401 253.141 82.484 247.33 87.1775 241.552C90.4332 237.545 93.9203 233.72 96.9611 229.548C102.051 222.561 108.232 216.55 114 210.176C114.925 209.149 115.884 208.139 116.743 207.047C121.222 201.467 126.824 197.063 132.014 192.211C137.137 187.443 142.491 182.989 148.077 178.75C152.093 175.704 155.993 172.492 160.092 169.528C162.075 168.104 164.075 166.747 166.306 165.637C166.355 166.233 165.942 166.366 165.678 166.598H165.694ZM181.874 159.66C178.287 167.061 175.362 174.76 172.52 182.476C169.561 190.556 166.934 198.751 164.24 206.931C162.472 212.328 161.645 217.958 160.108 223.421C158.902 227.759 157.943 232.147 156.886 236.535C154.638 245.906 153.498 255.443 152.176 264.963C151.994 266.222 151.878 267.53 151.961 268.788C152.324 273.838 151.415 278.772 150.606 283.689C148.474 296.852 146.722 310.065 145.449 323.344C145.416 323.774 145.499 324.221 145.003 324.85C144.954 323.973 144.904 323.377 144.871 322.764C144.607 316.373 144.392 309.999 144.574 303.591C144.689 299.203 144.491 294.816 144.524 290.428C144.59 280.908 145.763 271.47 146.755 262.016C147.499 254.946 148.011 247.843 149.036 240.806C150.308 231.948 151.862 223.14 154.357 214.53C156.373 207.593 158.505 200.672 161.711 194.182C166.636 184.281 171.644 174.429 177.709 165.157C179.262 162.789 180.75 160.389 182.336 157.872C182.518 158.65 182.105 159.147 181.857 159.66H181.874ZM105.076 152.176C105.043 152.756 104.596 152.723 104.249 152.673C104.514 152.524 104.762 152.358 105.076 152.176ZM185.658 140.09C181.031 141.944 176.354 143.716 171.743 145.636C165.43 148.252 158.803 149.974 152.324 152.127C142.475 155.388 132.625 158.667 123.073 162.723C113.934 166.598 104.795 170.488 96.0687 175.29C89.8383 178.701 83.5748 182.062 77.3278 185.439C74.1382 187.161 71.3122 189.413 68.2383 191.301C63.1317 194.447 58.0415 197.592 52.9349 200.738C52.6044 200.937 52.3069 201.218 51.8772 201.185C51.8607 200.639 52.34 200.473 52.6374 200.208C60.9998 193.039 69.924 186.714 79.6415 181.466C89.5243 176.118 99.7376 171.532 110.033 167.111C124.461 160.918 138.822 154.594 153.349 148.6C157.976 146.696 162.753 145.255 167.529 143.798C174.701 141.613 181.907 139.576 189.228 137.97C189.542 137.904 189.839 137.705 190.137 137.556C190.203 137.722 190.269 137.904 190.335 138.07C188.782 138.748 187.228 139.477 185.658 140.106V140.09ZM207.87 126.927C203.407 130.42 198.136 132.159 192.864 133.864C190.17 134.742 187.41 135.354 184.65 135.983C174.999 138.169 165.579 141.133 156.208 144.262C153.101 145.289 150.093 146.613 147.086 147.905C137.699 151.911 128.345 155.984 118.958 159.991C110.695 163.518 102.431 167.078 94.2343 170.753C86.6817 174.131 79.3771 178.005 72.2212 182.161C71.5105 182.575 70.7834 182.989 70.0727 183.386C70.9817 182.161 72.2046 181.3 73.4111 180.472C76.1544 178.568 79.0961 176.979 82.0874 175.522C87.9377 172.674 93.5071 169.363 98.6138 165.306C104.348 160.753 110.695 157.243 117.289 154.13C127.684 149.229 138.227 144.676 148.87 140.355C156.175 137.391 163.513 134.526 171.065 132.225C178.717 129.89 186.369 127.622 194.252 126.215C198.45 125.47 202.697 124.89 206.861 123.93C208.431 123.566 210.001 123.251 211.538 122.771C212.034 122.605 212.53 122.307 213.29 122.589C211.423 124.079 209.671 125.503 207.886 126.91L207.87 126.927ZM216.447 118.433C213.34 119.277 210.249 120.122 207.109 120.883C202.581 121.96 197.954 122.556 193.359 123.35C185.923 124.642 178.684 126.794 171.445 128.963C158.522 132.854 146.094 138.103 133.732 143.451C126.758 146.481 119.817 149.527 112.975 152.888C106.679 155.984 100.812 159.743 95.2754 164.048C91.3256 167.127 87.0288 169.694 82.5501 171.912C79.9555 173.187 77.4104 174.528 74.8984 175.936C74.6175 176.101 74.3531 176.333 73.9069 176.267C74.2704 175.571 74.8819 175.207 75.4108 174.76C81.2446 169.826 87.6898 165.803 94.383 162.21C100.894 158.716 107.125 154.776 113.438 150.968C118.412 147.954 123.354 144.858 128.411 141.961C133.484 139.063 138.988 137.076 144.375 134.907C151.729 131.96 159.051 128.897 166.587 126.38C173.495 124.095 180.518 122.258 187.559 120.486C189.988 119.873 192.5 119.824 194.979 119.575C202.317 118.863 209.687 118.433 217.009 117.506C217.273 117.473 217.554 117.489 217.967 117.473C217.571 118.201 216.943 118.3 216.414 118.433H216.447ZM216.711 196.384C216.645 210.888 216.595 225.392 216.562 239.896C216.529 252.728 216.496 265.559 216.447 278.391C216.447 278.822 216.595 279.269 216.182 279.898C215.521 277.629 215.158 275.56 214.745 273.49C214.464 272.066 214.298 270.626 213.918 269.235C211.175 258.821 210.398 248.092 209.092 237.445C207.341 223.19 206.828 208.868 207.175 194.513C207.456 182.542 208.646 170.671 211.621 159.031C213.703 150.901 216.348 142.937 219.471 135.156C220.33 133.003 221.206 130.834 222.132 128.516C222.38 129.377 222.049 129.957 221.9 130.553C219.868 138.765 218.529 147.093 218.364 155.57C218.298 158.749 218.215 161.912 217.901 165.058C216.86 175.472 216.777 185.92 216.728 196.351L216.711 196.384ZM242.046 98.73C240.592 99.9387 239.121 101.114 237.683 102.339C237.154 102.786 236.658 103.134 235.915 103.051C234.89 102.935 234.13 103.449 233.502 104.243C232.791 105.154 231.932 105.982 231.304 106.959C230.131 108.797 228.494 110.138 226.743 111.264C224.545 112.688 222.314 113.929 219.488 114.244C210.233 115.271 200.928 115.933 191.657 116.86C189.443 117.075 187.261 117.423 185.113 117.986C176.85 120.138 168.553 122.241 160.571 125.321C150.011 129.377 139.434 133.417 129.138 138.136C128.907 138.235 128.675 138.417 128.394 138.252C128.394 138.252 128.394 138.268 128.394 138.285C128.394 138.285 128.394 138.285 128.378 138.285C128.279 138.715 127.865 138.798 127.551 138.997C121.999 142.358 116.446 145.702 110.893 149.064C110.281 149.428 109.703 149.891 108.992 150.107C108.794 149.825 109.042 149.759 109.191 149.66C111.19 148.352 113.008 146.795 114.975 145.454C119.09 142.606 123.552 140.355 128.08 138.268C128.146 138.235 128.262 138.268 128.361 138.301C128.361 138.301 128.361 138.285 128.361 138.268C128.361 138.268 128.378 138.268 128.394 138.268C128.626 137.772 129.154 137.672 129.568 137.457C143.218 130.503 157.117 124.046 171.495 118.764C185.972 113.466 200.548 108.416 215.67 105.104C224.495 103.184 233.188 100.617 241.831 97.9684C242.145 97.869 242.443 97.7862 242.889 97.6538C242.74 98.2664 242.36 98.4816 242.046 98.7465V98.73ZM232.957 97.4882C223.47 100.055 213.968 102.505 204.416 104.773C198.582 106.164 192.88 108.019 187.212 110.005C177.064 113.565 166.868 117.026 156.952 121.264C154.87 122.158 152.787 123.069 150.672 123.996C150.639 123.367 151.135 123.317 151.432 123.152C158.406 119.36 165.579 115.966 172.949 113.002C178.353 110.833 183.725 108.565 188.897 105.883C195.789 102.323 203.077 99.8724 210.663 98.2333C216.629 96.9418 222.595 95.6669 228.643 94.8391C230.197 94.6238 231.734 94.5245 233.287 94.5741C235.502 94.6404 237.716 94.3589 239.931 94.1602C241.021 94.0774 242.112 94.0278 243.203 93.9615L243.269 94.3258C239.898 95.6007 236.427 96.5444 232.94 97.4716L232.957 97.4882ZM245.798 113.366C244.806 117.82 243.55 122.191 242.988 126.728C242.096 133.947 241.137 141.166 241.501 148.467C241.633 151.233 241.534 154.031 241.468 156.796C241.054 177.293 240.013 197.758 239.17 218.239C238.923 224.133 238.873 229.995 239.666 235.872C240.212 239.995 240.212 244.184 240.509 248.34C241.104 256.983 241.716 265.626 242.31 274.285C242.36 274.864 242.344 275.46 242.36 276.371C241.798 275.576 241.749 274.98 241.6 274.417C239.65 267.265 238.476 259.963 237.65 252.628C235.882 236.998 234.411 221.352 232.709 205.705C231.238 192.244 231.42 178.734 232.709 165.273C233.469 157.359 233.849 149.428 234.989 141.547C236.278 132.738 238.047 124.029 241.137 115.668C242.707 111.396 244.426 107.174 246.392 103.068C247.12 101.545 248.194 100.286 249.334 99.028C247.153 103.565 246.855 108.548 245.798 113.35V113.366ZM262.621 140.255C263.101 144.858 262.968 149.477 262.869 154.08C262.787 158.468 262.869 162.839 263.349 167.227C264.208 175.009 264.935 182.807 265.695 190.605C265.927 193.039 266.141 195.473 266.191 197.924C266.34 205.341 267.447 212.643 268.852 219.911C269.728 224.398 270.273 228.918 270.686 233.439C271.248 239.416 271.645 245.409 272.108 251.386C272.141 251.916 272.256 252.463 271.942 252.992C270.62 249.118 269.662 245.194 268.984 241.187C267.414 231.982 265.894 222.776 264.34 213.57C264.092 212.146 263.877 210.706 263.53 209.315C262.076 203.47 261.431 197.51 261.117 191.516C260.903 187.294 260.523 183.088 260.027 178.899C259.663 175.654 259.349 172.376 259.184 169.098C258.622 158.667 257.845 148.252 257.019 137.838C256.457 130.884 256.606 123.963 257.432 117.042C258.077 111.578 258.886 106.148 259.795 100.717C260.523 96.3126 262.241 92.3058 264.423 88.4811C264.522 88.2824 264.638 88.1003 264.786 87.9348C264.836 87.8685 264.968 87.8685 265.15 87.8189C265.332 88.299 265.166 88.7792 265.1 89.2593C264.72 92.3389 264.34 95.4351 263.927 98.5147C263.101 104.806 262.919 111.131 262.853 117.473C262.787 123.417 262.621 129.361 262.423 135.305C262.373 136.977 262.423 138.633 262.621 140.288V140.255ZM274.206 73.7453C268.191 78.1164 262.291 82.653 256.292 87.0241C253.433 89.1103 250.111 90.6998 246.326 90.7495C243.666 90.7991 241.021 91.064 238.361 91.2793C236.311 91.4449 234.279 91.5939 232.213 91.5442C230.097 91.4945 227.999 91.8257 225.933 92.1734C218.926 93.3324 211.985 94.8059 205.093 96.4948C199.011 97.9849 193.277 100.336 187.724 103.118C180.816 106.595 173.643 109.409 166.537 112.373C166.306 112.472 166.058 112.621 165.777 112.505C165.843 112.009 166.306 111.976 166.603 111.794C174.833 107.075 183.377 102.952 192.037 99.0942C200.218 95.4682 208.679 92.6204 217.157 89.8388C222.264 88.15 227.437 86.6599 232.576 85.0869C237.981 83.4147 243.55 82.3384 249.02 80.9145C254.887 79.3913 260.556 77.3051 266.307 75.4176C268.835 74.5897 271.397 73.8612 273.942 73.0665C274.256 72.9671 274.553 72.785 274.934 72.6029C274.934 73.4307 274.487 73.5301 274.19 73.7453H274.206ZM260.159 74.3083C254.623 76.2951 248.954 77.868 243.236 79.2257C239.617 80.0867 235.997 80.9311 232.428 81.9742C222.099 84.971 211.852 88.2659 201.738 91.9581C201.276 92.1237 200.829 92.3886 199.904 92.2893C201.887 90.9647 203.655 89.9713 205.457 89.0441C217.868 82.6199 230.891 77.7521 244.31 73.944C251.301 71.9572 258.424 70.5332 265.679 69.8378C269.761 69.4405 273.826 68.861 277.859 68.1159C278.288 68.0331 278.718 67.8841 279.313 68.0662C278.85 68.6954 278.173 68.712 277.611 68.8775C271.794 70.6988 265.894 72.2552 260.126 74.3083H260.159ZM280.189 130.056C280.387 139.841 281.263 149.593 281.858 159.346C282.37 167.889 283.511 176.383 283.94 184.926C284.287 191.483 284.932 198.006 285.411 204.546C285.973 212.096 287.08 219.564 288.336 227.014C288.65 228.869 289.03 230.723 288.997 232.627C287.758 226.832 285.362 221.402 284.205 215.623C283.048 209.845 281.875 204.083 280.767 198.288C279.296 190.473 277.958 182.641 276.768 174.777C276.19 170.919 275.876 167.045 275.958 163.154C276.024 160.256 275.876 157.375 275.595 154.494C274.322 141.547 273.793 128.549 273.661 115.535C273.578 107.141 274.074 98.7631 275.611 90.4845C276.52 85.6002 278.421 81.0304 280.123 76.2289C280.569 76.7918 280.387 77.2223 280.338 77.6031C279.115 87.6698 279.33 97.7862 279.544 107.903C279.71 115.287 280.024 122.672 280.189 130.056ZM295.74 86.0804C295.74 86.4777 295.773 86.8585 295.839 87.2393C296.897 93.0509 297.112 98.9452 297.376 104.823C297.492 107.588 297.856 110.37 298.203 113.118C299.607 124.145 301.326 135.106 304.086 145.918C305.97 153.352 307.953 160.769 309.589 168.253C310.978 174.611 312.746 180.87 314.151 187.211C316.811 199.265 319.009 211.401 320.398 223.686C321.207 230.806 322.248 237.909 323.885 244.896C323.951 245.161 323.951 245.426 323.984 245.691C323.868 245.707 323.769 245.74 323.653 245.757C322.596 243.141 321.554 240.508 320.678 237.826C318.299 230.591 316.299 223.239 314.2 215.921C312.349 209.464 310.994 202.858 309.374 196.334C305.788 181.764 302.351 167.16 299.128 152.491C297.938 147.06 296.484 141.696 295.558 136.215C295.211 134.129 294.765 132.059 294.468 129.973C293.294 122.059 291.956 114.161 290.865 106.247C290.286 102.124 289.179 98.0843 288.898 93.9119C288.634 89.9713 288.237 86.0472 288.204 82.0901C288.171 77.9177 289.031 73.9109 290.551 70.0696C291.592 67.4536 291.972 67.2053 294.385 65.9469C294.914 66.2118 294.732 66.7085 294.749 67.1225C295.162 73.4473 295.492 79.7555 295.707 86.0969L295.74 86.0804ZM309.87 50.9627C301.673 53.8106 293.179 54.9199 284.568 55.5325C272.124 56.41 259.68 57.42 247.318 59.1751C236.625 60.6983 226.197 63.2481 216.034 66.9072C211.605 68.4967 207.208 70.2187 202.796 71.8909C192.665 75.7322 183.278 80.9311 174.354 87.0076C169.396 90.3852 164.471 93.796 159.53 97.1902C159.067 97.5048 158.604 97.7862 157.976 98.167C158.092 97.4716 158.505 97.3392 158.803 97.1239C162.984 94.1105 166.967 90.8157 171.016 87.6367C176.106 83.6465 181.626 80.3847 187.459 77.5866C197.524 72.7684 207.456 67.7185 217.521 62.917C225.685 59.0095 234.031 55.5325 242.79 53.1317C249.648 51.2442 256.54 49.5554 263.563 48.5289C272.917 47.1546 282.337 46.8235 291.774 47.403C297.971 47.7838 304.185 47.8831 310.349 48.5951C311.044 48.6779 311.771 48.6613 312.399 49.009C311.986 50.317 310.911 50.5985 309.854 50.9793L309.87 50.9627ZM321.141 60.3341C321.703 62.9998 322.199 65.682 322.827 68.3311C324.48 75.3679 325.636 82.4875 326.826 89.6236C328.776 101.512 331.189 113.333 333.387 125.188C335.337 135.735 337.635 146.216 339.221 156.829C339.601 159.412 340.147 161.962 340.907 164.478C341.204 165.422 341.419 166.415 341.568 167.392C342.807 175.588 344.576 183.668 346.013 191.831C347.269 198.95 348.211 206.103 349.286 213.255C349.319 213.454 349.401 213.686 349.071 213.934C348.906 213.338 348.707 212.775 348.608 212.212C347.071 204.348 344.774 196.682 343.105 188.85C341.766 182.592 339.519 176.581 337.8 170.439C335.106 160.803 332.148 151.249 330.198 141.414C329.983 140.388 329.735 139.345 329.421 138.351C326.958 130.536 325.438 122.523 324.133 114.443C323.207 108.615 321.935 102.869 320.596 97.1239C320.365 96.1471 320.15 95.1702 320.034 94.1768C318.976 85.5671 317.357 77.0402 316.266 68.447C315.721 64.1588 314.878 59.9036 314.712 55.5491C314.663 54.1914 315.01 53.347 316.233 52.784C317.125 52.3701 317.935 51.7906 318.993 51.1614C320.017 54.3238 320.513 57.3372 321.141 60.3175V60.3341ZM339.866 65.6655C341.419 71.4604 342.989 77.2554 343.997 83.1829C344.278 84.822 344.741 86.4281 345.237 88.0175C348.558 98.581 351.302 109.31 353.434 120.155C355.169 129.046 356.871 137.937 358.805 146.779C360.755 155.736 362.226 164.793 363.234 173.932C363.796 179.115 364.721 184.264 365.316 189.463C365.994 195.49 366.82 201.483 367.432 207.51C367.713 210.292 367.663 213.123 367.762 215.921C367.101 215.292 367.051 214.514 366.952 213.785C366.374 209.431 365.746 205.076 365.25 200.722C364.407 193.486 363.399 186.284 362.044 179.115C360.953 173.386 359.598 167.707 358.177 162.044C356.64 155.935 355.417 149.792 354.491 143.567C353.186 134.874 351.252 126.314 348.724 117.887C347.716 114.542 346.84 111.148 345.914 107.77C344.724 103.432 343.568 99.0777 342.146 94.8059C341.122 91.7429 340.361 88.6136 339.585 85.4843C337.453 76.8581 335.387 68.1987 333.073 59.6221C331.966 55.5656 330.33 51.6416 328.958 47.6513C328.231 45.5486 327.917 45.9625 330.032 44.7869C331.074 44.2075 331.173 44.2406 331.669 45.2837C334.792 51.9231 337.965 58.5128 339.882 65.6655H339.866ZM346.856 45.3665C349.038 49.8038 351.021 54.3238 352.326 59.1254C353.037 61.7414 354.177 64.2581 354.938 66.8576C360.292 85.4346 366.523 103.73 371.894 122.307C375.265 133.947 378.405 145.636 381.314 157.392C383.132 164.677 384.883 171.962 386.04 179.38C386.817 184.347 386.784 189.33 386.586 194.397C386.47 194.033 386.321 193.685 386.239 193.321C384.288 183.966 381.942 174.694 379.463 165.472C377.81 159.346 375.645 153.402 373.645 147.391C370.869 139.113 368.241 130.818 365.994 122.374C365.052 118.83 363.911 115.337 362.986 111.794C359.003 96.3457 355.334 80.8318 351.963 65.2515C350.938 60.5162 349.401 55.9299 347.98 51.3104C347.203 48.7607 346.427 46.2274 345.551 43.6776C346.278 44.0584 346.526 44.7373 346.84 45.3499L346.856 45.3665ZM340.907 33.4453C340.295 33.048 339.485 33.3791 338.907 32.9155H338.874C338.874 32.9155 338.841 32.9155 338.824 32.9155C338.18 33.1473 337.535 33.2467 336.94 32.7831H336.874V32.7499L336.94 32.7831C337.585 32.7168 338.213 32.5513 338.824 32.9155C338.824 32.9155 338.857 32.9155 338.874 32.9155C338.874 32.9155 338.907 32.9321 338.924 32.9486C340.295 32.5181 341.667 32.8658 343.254 32.8493C342.444 33.644 341.799 34.0414 340.923 33.4785L340.907 33.4453ZM359.896 34.6706C362.044 36.8727 363.763 39.3893 365.465 41.9226C366.704 43.7604 367.878 45.6479 369.167 47.4692C373.48 53.5622 376.323 60.3672 378.703 67.3874C380.851 73.7122 382.801 80.0867 384.619 86.4943C386.685 93.7629 388.437 101.131 389.825 108.565C391.51 117.638 393.659 126.612 395.725 135.603C397.361 142.755 398.848 149.941 400.137 157.16C400.236 157.69 400.269 158.22 400.336 158.749C400.253 158.766 400.17 158.783 400.088 158.816C399.724 157.624 399.327 156.448 398.997 155.239C395.543 142.822 391.841 130.47 388.47 118.019C385.396 106.644 382.157 95.3192 378.802 84.0273C376.471 76.1461 373.761 68.3643 370.77 60.6983C367.861 53.2476 364.556 45.9625 361.019 38.7767C360.193 37.0879 359.466 35.366 358.243 33.5612C359.168 33.793 359.515 34.2732 359.912 34.6871L359.896 34.6706ZM366.952 21.1103C363.366 22.8654 359.78 24.6204 356.194 26.392C355.433 26.7728 354.772 27.1371 353.913 26.4748C353.335 26.0278 352.657 26.3755 352.062 26.7894C348.79 29.0412 345.154 29.9021 341.221 29.8524C335.932 29.7862 330.71 29.1902 325.504 28.3292C316.134 26.7894 306.681 26.1768 297.195 25.9781C294.088 25.9119 290.981 25.7628 287.89 25.6138C283.18 25.382 278.47 25.4317 273.76 25.7297C269.265 26.0112 264.836 26.8225 260.44 27.7331C254.953 28.859 249.433 29.8856 244.095 31.6241C235.072 34.5381 225.949 37.1872 217.339 41.2603C216.959 41.4424 216.562 41.5583 215.802 41.8232C217.009 40.1841 218.281 39.2238 219.62 38.3462C222.644 36.3594 225.817 34.654 229.073 33.0976C239.369 28.114 250.045 24.0243 260.803 20.1997C263.53 19.2228 266.34 18.5605 269.116 17.7823C271.199 17.1863 273.314 16.6896 275.33 15.9279C279.478 14.3716 283.775 13.643 288.122 13.047C295.691 12.0039 303.276 12.0205 310.862 12.7324C315.77 13.196 320.678 13.7424 325.57 14.3053C330.429 14.8683 335.189 15.961 339.915 17.1532C346.79 18.8916 353.781 19.5208 360.821 19.8023C362.49 19.8685 364.143 19.9679 365.795 20.1003C366.39 20.15 366.985 20.299 367.564 20.3983C367.564 20.9282 367.184 20.9613 366.919 21.0937L366.952 21.1103ZM371.91 18.5771C369.15 17.4346 366.225 17.1697 363.283 17.0207C359.284 16.822 355.301 16.6233 351.335 16.2094C348.344 15.9114 345.402 15.3815 342.493 14.6365C328.71 11.1595 314.696 9.53689 300.5 9.23886C293.427 9.08985 286.436 10.017 279.528 11.4575C279.197 11.5237 278.867 11.59 278.553 11.7059C272.124 14.0404 265.431 15.4312 258.953 17.6168C254.011 19.289 249.202 21.3255 244.31 23.1468C243.831 23.329 243.368 23.6767 242.724 23.5939C243.087 23.0309 243.616 22.8654 244.095 22.6501C246.987 21.3752 249.863 20.0506 252.871 19.0407C254.176 18.5936 255.499 18.13 256.755 17.534C263.712 14.2722 271 11.9211 278.239 9.43755C280.288 8.72559 282.47 8.62625 284.618 8.34478C288.188 7.88118 291.774 7.50037 295.344 6.93742C299.012 6.35793 302.714 5.944 306.4 5.46384C308.284 5.21549 310.168 5.2486 312.052 5.33139C317.588 5.56319 323.124 5.92744 328.545 7.20234C329.454 7.41758 330.396 7.55004 331.338 7.66594C337.254 8.34478 342.989 9.86803 348.707 11.4741C350.426 11.9542 352.145 12.4013 353.88 12.6827C357.35 13.2622 360.705 14.1729 363.961 15.4974C366.275 16.4412 368.638 17.2028 371.117 17.6168C371.761 17.7161 372.406 17.9148 373.232 18.1135C372.737 18.7261 372.34 18.7426 371.877 18.5605L371.91 18.5771ZM375.149 27.4848C375.149 27.4848 375.149 27.4682 375.133 27.4682C375.133 27.4682 375.133 27.4517 375.116 27.4351C374.439 27.3358 374.356 26.6735 374.026 26.2264C374.604 26.4251 374.885 26.9053 375.116 27.4351C375.133 27.4351 375.166 27.4351 375.182 27.4351C375.182 27.4351 375.149 27.4682 375.149 27.4848Z" fill="#CEB5A7"/>
</g>
</svg>
